<?xml version="1.0" encoding="utf-8"?>
<!-- Generator: Adobe Illustrator 17.0.0, SVG Export Plug-In . SVG Version: 6.00 Build 0)  -->
<!DOCTYPE svg PUBLIC "-//W3C//DTD SVG 1.1//EN" "http://www.w3.org/Graphics/SVG/1.1/DTD/svg11.dtd">
<svg version="1.1" id="Layer_1" xmlns="http://www.w3.org/2000/svg" xmlns:xlink="http://www.w3.org/1999/xlink" x="0px" y="0px"
	 width="129.5px" height="98.5px" viewBox="0 0 129.5 98.5" enable-background="new 0 0 129.5 98.5" xml:space="preserve">
<path fill="#CCCCCC" d="M66.635,37.516c0.555,0.763,0.764,1.724,0.574,2.649c-0.927,5.518-8.828,7.283-12.625,10.506
	c-6.93,6.003-11.433,14.876-17.657,21.541c-2.031,2.119-6.136,5.165-4.105,8.828c2.031,3.664,4.414,0.795,6.224-1.192
	c4.105-5.121,8.828-10.418,13.243-15.229c4.15-3.324,8.018-6.986,11.565-10.947c3.002-4.414,3.885-10.638,8.828-13.243
	c3.487-1.898,5.341,16.377,5.474,17.922c1.059,10.197-0.883,20.614,3.046,30.635c0.883,2.207,3.708,5.032,6.18,4.414
	s2.207-5.385,1.986-7.857c-0.882-10.987-2.43-21.91-4.635-32.709c-1.176-5.16-2.907-10.177-5.165-14.964c0,0,0,0.397,0,0.486
	c1.059-0.75-0.397-4.414,1.854-6.003c5.562-3.576,12.316-4.811,18.142-7.813c5.827-3.002,11.345-8.034,17.657-10.991
	c2.543-0.846,4.866-2.248,6.798-4.105c1.501-2.163,0-4.017-2.34-4.414c-3.178-0.265-4.811,3.267-7.416,4.414
	c-7.151,2.913-14.346,5.739-21.188,9.226c-5.65,2.913-11.08,8.122-17.657,9.402c-2.609,1.013-5.369,1.58-8.166,1.677
	c-6.974-0.53-13.772-3.09-20.703-3.885c-5.914-0.255-11.809-0.844-17.657-1.766c-5.518-1.192-10.903-4.414-16.553-4.414
	c-2.842,0.241-5.445,1.687-7.151,3.973c-2.472,5.474,10.55,6.401,13.596,6.886c10.197,1.633,20.614,1.104,30.635,3.046
	C52.597,34.603,63.809,33.808,66.635,37.516z"/>
</svg>
