<?xml version="1.0" encoding="utf-8"?>
<!-- Generator: Adobe Illustrator 17.0.0, SVG Export Plug-In . SVG Version: 6.00 Build 0)  -->
<!DOCTYPE svg PUBLIC "-//W3C//DTD SVG 1.1//EN" "http://www.w3.org/Graphics/SVG/1.1/DTD/svg11.dtd">
<svg version="1.1" id="Layer_1" xmlns="http://www.w3.org/2000/svg" xmlns:xlink="http://www.w3.org/1999/xlink" x="0px" y="0px"
	 width="111.5px" height="111.5px" viewBox="11.75 -6.75 111.5 111.5" enable-background="new 11.75 -6.75 111.5 111.5"
	 xml:space="preserve">
<path fill="#CCCCCC" d="M72.162,36.481c-3.576,3.046-7.283,5.959-10.727,9.137c-5.699,6.176-10.867,12.821-15.45,19.864
	c-6.419,8.344-13.521,16.14-21.232,23.307c-1.501,1.324-14.92,10.903-8.21,13.552c1.766,0.706,3.222,1.677,4.414,0.53
	c2.693-2.428,6.489-3.09,9.226-5.385c2.711-2.875,4.84-6.248,6.268-9.932c2.693-4.679,7.328-7.46,10.638-11.609
	c9.226-11.389,18.937-22.645,28.604-33.636c0,0,0.927-1.413,0.971-1.413s2.34,6.489,2.56,7.46c0.397,4.287,0.397,8.602,0,12.89
	c0.049,5.911,1.017,11.779,2.869,17.392c1.854,5.341,6.136,7.46,7.857,0.795c0.307-2.119,0.455-4.259,0.441-6.401
	c0.158-2.396,0.158-4.799,0-7.195c-0.875-9.626-1.2-19.294-0.971-28.957c0-7.372-0.618-12.316,6.754-16.068
	c3.963-2.527,7.7-5.392,11.168-8.564c3.62-2.649,8.828-3.664,11.698-7.283s1.192-9.358-4.414-7.725
	c-3.134,0.927-4.988,4.9-7.283,6.974c-9.165,7.384-18.809,14.153-28.869,20.261c-6.489,4.414-14.523,2.516-21.762,1.677
	c-8.828-1.015-16.907,1.81-25.691,2.119c-4.149,0-8.828-2.869-12.934-1.501C8.156,30.08,23.87,37.761,28.329,37.364
	c7.637-0.706,15.317-0.795,22.91-1.545C58.831,35.068,64.481,33.656,72.162,36.481z"/>
</svg>
