<?xml version="1.0" encoding="utf-8"?>
<!-- Generator: Adobe Illustrator 17.0.0, SVG Export Plug-In . SVG Version: 6.00 Build 0)  -->
<!DOCTYPE svg PUBLIC "-//W3C//DTD SVG 1.1//EN" "http://www.w3.org/Graphics/SVG/1.1/DTD/svg11.dtd">
<svg version="1.1" id="Layer_1" xmlns="http://www.w3.org/2000/svg" xmlns:xlink="http://www.w3.org/1999/xlink" x="0px" y="0px"
	 width="48.75px" height="74px" viewBox="0 0 48.75 74" enable-background="new 0 0 48.75 74" xml:space="preserve">
<path fill="#CCCCCC" d="M22.119,43.273c1.64,1.482,1.285,4.862,1.087,6.818c-0.711,5.652-1.383,11.483-4.724,16.384
	c-1.087,1.601-2.648,4.427,0.178,5.198c6.917,1.976,5.573-14.012,6.305-17.432c0.552-2.274,0.87-4.598,0.949-6.937
	c-0.32-2.046-0.472-4.115-0.455-6.186c0.711-3.478,4.071,1.087,5,2.312c0.929,1.225,1.976,2.846,3.103,4.249
	c1.423,1.976,3.478,3.281,4.98,5.158c1.502,1.878,4.407,8.518,7.609,8.222c1.976-0.158,1.522-2.629,0.85-3.953
	c-1.104-1.26-2.351-2.388-3.716-3.36c-1.322-1.841-2.423-3.831-3.281-5.929c-1.805-2.967-4.257-5.487-7.174-7.372
	c-2.176-1.267-3.935-3.143-5.059-5.395c-0.778-3.092-1.216-6.26-1.304-9.447c-0.455-2.945-1.304-5.811-1.759-8.775
	c-0.438-2.996-0.551-6.031-0.336-9.052c0-1.976,0.632-6.482-2.747-5.475c-2.293,0.711-1.285,6.384-1.166,7.905
	c0.277,3.202,0.909,6.364,1.146,9.566s0.217,6.562,0.632,9.882c0.277,2.51,0.672,5.218-1.304,7.214
	c-2.009,1.861-4.33,3.353-6.858,4.407c-3.617,1.64-8.064,1.976-11.265,4.427c-1.798,1.383-2.747,4.21,0.573,3.953
	c2.215-0.565,4.343-1.43,6.324-2.569c2.629-0.929,5.119-2.273,7.668-3.399C18.74,43.234,20.835,42.028,22.119,43.273z"/>
</svg>
