<?xml version="1.0" encoding="utf-8"?>
<!-- Generator: Adobe Illustrator 17.0.0, SVG Export Plug-In . SVG Version: 6.00 Build 0)  -->
<!DOCTYPE svg PUBLIC "-//W3C//DTD SVG 1.1//EN" "http://www.w3.org/Graphics/SVG/1.1/DTD/svg11.dtd">
<svg version="1.1" id="Layer_1" xmlns="http://www.w3.org/2000/svg" xmlns:xlink="http://www.w3.org/1999/xlink" x="0px" y="0px"
	 width="55.5px" height="60.25px" viewBox="0 0 55.5 60.25" enable-background="new 0 0 55.5 60.25" xml:space="preserve">
<path fill="#CCCCCC" d="M21.395,24.247c0.568,1.123,0.917,2.343,1.028,3.597c0.613,3.103,0.83,1.976,0.593,3.103
	c-0.771,6.858,3.182,13.835,0.889,20.515c-0.63,1.364-1.012,2.83-1.127,4.328c0,1.759,1.719,4.091,3.281,1.7
	c0.657-1.381,1.104-2.854,1.324-4.368c0.591-1.423,1.048-2.899,1.364-4.407c0.159-2.248,0.019-4.508-0.415-6.72
	c-0.152-0.648-0.231-1.311-0.237-1.976c-0.631-5.615-1.641-11.182-3.024-16.661c0.384-0.315,0.801-0.587,1.245-0.81
	c1.403-0.573,4.506,2.806,5.395,3.419c2.578,1.425,5.319,2.533,8.162,3.301c2.589,0.889,5.079,1.976,7.649,2.965
	c1.651,0.882,3.485,1.37,5.356,1.423c3.676-0.632,0-3.261-1.028-4.071c-0.435-0.336-1.522-0.534-2.51-1.047
	c-1.914-0.834-3.898-1.495-5.929-1.976c-2.591-0.812-5.058-1.975-7.332-3.459c-2.824-2.267-6.119-3.874-9.645-4.704
	c-2.358-0.181-4.26-2-4.546-4.348c-1.028-3.439-3.577-12.728-9.605-12.293c-4.625,0.316-0.652,3.162,0.356,4.427
	c2.925,3.471,4.639,7.8,4.882,12.333c0.136,1.228-0.31,2.449-1.206,3.301c-1.625,2.146-3.452,4.131-5.455,5.929
	c-2.821,2.328-5.464,4.865-7.905,7.589c-1.719,1.581-3.557,5.534,0.573,4.743c0.475-0.255,0.887-0.613,1.206-1.047
	c1.273-1.529,2.765-2.861,4.427-3.953c3.202-2.688,5.277-6.443,8.795-8.795C18.272,26.203,21.415,24.306,21.395,24.247z"/>
</svg>
