<?xml version="1.0" encoding="utf-8"?>
<!-- Generator: Adobe Illustrator 17.0.0, SVG Export Plug-In . SVG Version: 6.00 Build 0)  -->
<!DOCTYPE svg PUBLIC "-//W3C//DTD SVG 1.1//EN" "http://www.w3.org/Graphics/SVG/1.1/DTD/svg11.dtd">
<svg version="1.1" id="Layer_1" xmlns="http://www.w3.org/2000/svg" xmlns:xlink="http://www.w3.org/1999/xlink" x="0px" y="0px"
	 width="50.5px" height="72px" viewBox="0 0 50.5 72" enable-background="new 0 0 50.5 72" xml:space="preserve">
<path fill="#CCCCCC" d="M23.993,42.168c1.522,1.601,0.81,4.882,0.474,6.838c-1.146,5.613-2.293,11.226-6.087,15.811
	c-1.225,1.522-3.004,4.17-0.237,5.257c6.601,2.629,6.72-13.36,7.747-16.7c0.749-2.198,1.26-4.471,1.522-6.779
	c-0.096-2.064-0.023-4.133,0.217-6.186c0.909-3.439,3.716,1.502,4.526,2.708c0.81,1.206,1.818,2.984,2.727,4.486
	c1.225,1.976,3.162,3.538,4.467,5.534c1.304,1.996,3.597,8.775,6.838,8.795c1.976,0,1.7-2.49,1.166-3.735
	c-0.967-1.41-2.109-2.692-3.399-3.814c-1.147-1.96-2.056-4.05-2.708-6.226c-1.549-3.071-3.747-5.769-6.443-7.905
	c-2.093-1.467-3.692-3.534-4.585-5.929c-0.5-3.043-0.666-6.131-0.494-9.21c-0.198-2.945-0.771-5.929-1.067-8.795
	c-0.123-2.998,0.083-6,0.613-8.953c0.237-1.976,1.186-6.364-2.253-5.652c-2.233,0.455-1.838,6.206-1.858,7.747
	c0,3.202,0.356,6.384,0.316,9.585s-0.356,6.502-0.356,9.882c0.119,2.589,0.237,5.178-1.779,6.957
	c-2.155,1.675-4.591,2.953-7.194,3.775c-3.696,1.324-8.123,1.285-11.502,3.399c-1.976,1.245-3.083,3.953,0.198,3.953
	c2.247-0.36,4.435-1.024,6.502-1.976c2.688-0.711,5.257-1.799,7.905-2.708C20.613,41.872,22.787,40.864,23.993,42.168z"/>
</svg>
