<?xml version="1.0" encoding="utf-8"?>
<!-- Generator: Adobe Illustrator 17.0.0, SVG Export Plug-In . SVG Version: 6.00 Build 0)  -->
<!DOCTYPE svg PUBLIC "-//W3C//DTD SVG 1.1//EN" "http://www.w3.org/Graphics/SVG/1.1/DTD/svg11.dtd">
<svg version="1.1" id="Layer_1" xmlns="http://www.w3.org/2000/svg" xmlns:xlink="http://www.w3.org/1999/xlink" x="0px" y="0px"
	 width="81px" height="102px" viewBox="0 0 81 102" enable-background="new 0 0 81 102" xml:space="preserve">
<path fill="#CCCCCC" d="M36.009,52.9c0.492,3.486-3.404,7.219-5.66,9.352c-6.645,6.317-13.331,12.551-22.354,15.094
	C5,78.207,0.201,80.012,2.867,83.991c6.317,9.475,21.001-11.321,25.349-14.766c3.006-2.157,5.758-4.647,8.203-7.424
	c1.755-2.792,3.73-5.439,5.906-7.916c4.102-3.651,3.486,5.414,3.445,7.711c-0.041,2.297-0.369,5.537-0.533,8.203
	c-0.246,3.815,0.861,7.547,0.779,11.321c-0.082,3.774-3.363,14.807,0.861,17.76c2.625,1.846,4.512-1.682,4.922-3.856
	c0.047-2.764-0.27-5.522-0.943-8.203c0.312-3.613,1.042-7.178,2.174-10.623c0.843-5.489,0.436-11.097-1.19-16.407
	c-1.361-3.792-1.575-7.9-0.615-11.813c2.144-4.363,4.743-8.487,7.752-12.305c2.461-4.102,4.389-8.203,6.686-12.305
	c2.54-4.029,5.51-7.77,8.86-11.157c2.051-2.338,7.342-7.178,2.215-9.434c-3.363-1.436-8.203,6.44-9.516,8.45
	c-2.912,4.102-5.373,8.655-8.203,12.797c-2.83,4.143-6.399,8.203-9.229,12.305c-2.215,3.404-4.471,7.014-8.942,7.424
	c-4.391,0.35-8.81-0.094-13.043-1.313c-5.947-1.518-11.731-5.619-18.048-6.112c-3.61,0-7.629,2.297-3.363,5.414
	c3.245,1.583,6.697,2.702,10.254,3.322c4.102,1.559,8.491,2.461,12.756,3.692C31.62,49.454,35.394,50.07,36.009,52.9z"/>
</svg>
