<?xml version="1.0" encoding="utf-8"?>
<!-- Generator: Adobe Illustrator 17.0.0, SVG Export Plug-In . SVG Version: 6.00 Build 0)  -->
<!DOCTYPE svg PUBLIC "-//W3C//DTD SVG 1.1//EN" "http://www.w3.org/Graphics/SVG/1.1/DTD/svg11.dtd">
<svg version="1.1" id="Layer_1" xmlns="http://www.w3.org/2000/svg" xmlns:xlink="http://www.w3.org/1999/xlink" x="0px" y="0px"
	 width="57px" height="73.25px" viewBox="0 0 57 73.25" enable-background="new 0 0 57 73.25" xml:space="preserve">
<path fill="#CCCCCC" d="M24.578,30.36c0.237,0.474,0.356,0.692,0.316,4.625s0.277,2.51,0,3.953
	c-2.134,8.123,0.356,17.471-3.261,25.12c-0.895,1.563-1.561,3.247-1.976,5c-0.296,2.154,0.988,5.336,2.945,2.846
	c0.949-1.56,1.68-3.242,2.174-5c0.853-1.621,1.58-3.306,2.174-5.04c0.595-2.746,0.887-5.55,0.87-8.36
	c-0.02-0.854,0.039-1.707,0.178-2.549c0.501-6.938,0.626-13.899,0.376-20.851c0.421-0.275,0.872-0.5,1.344-0.672
	c1.482-0.395,3.834,4.467,4.585,5.455c2.156,2.293,4.608,4.287,7.293,5.929c2.352,1.719,4.506,3.676,6.818,5.475
	c1.206,0.988,3.32,2.965,4.921,3.004c3.716,0.119,0.652-3.953-0.198-5.198c-0.277-0.534-1.364-1.028-2.194-1.976
	c-1.694-1.472-3.513-2.794-5.435-3.953c-2.424-1.653-4.595-3.65-6.443-5.929c-2.589-3.103-4.724-6.285-8.518-8.024
	c-2.945-1.364-3.34-3.459-3.538-6.403c-0.316-4.407-0.949-16.305-6.917-17.293c-4.546-0.731-1.265,3.716-0.514,5.554
	c2.198,5.072,2.997,10.641,2.312,16.127c-0.036,1.419-0.65,2.761-1.7,3.716c-2.134,1.818-3.953,4.684-6.542,5.929
	c-3.716,1.878-5.929,4.882-9.17,7.253c-1.976,1.463-4.546,5.929-0.356,5.929c0.532-0.216,1.001-0.563,1.364-1.008
	c1.492-1.451,3.199-2.665,5.059-3.597c3.656-2.49,6.384-6.562,10.277-8.617C22.101,31.393,23.355,30.912,24.578,30.36z"/>
</svg>
