<?xml version="1.0" encoding="utf-8"?>
<!-- Generator: Adobe Illustrator 17.0.0, SVG Export Plug-In . SVG Version: 6.00 Build 0)  -->
<!DOCTYPE svg PUBLIC "-//W3C//DTD SVG 1.1//EN" "http://www.w3.org/Graphics/SVG/1.1/DTD/svg11.dtd">
<svg version="1.1" id="Layer_1" xmlns="http://www.w3.org/2000/svg" xmlns:xlink="http://www.w3.org/1999/xlink" x="0px" y="0px"
	 width="103.5px" height="107.5px" viewBox="0 0 103.5 107.5" enable-background="new 0 0 103.5 107.5" xml:space="preserve">
<path fill="#CCCCCC" d="M62.058,46.302c-3.65,2.861-6.849,6.253-9.491,10.064c-9.32,10.431-21.916,17.375-35.711,19.687
	c-2.793,0.629-5.661,0.867-8.519,0.706c-2.958-0.441-6.533-3.134-3.002-5.959c4.414-3.487,12.183-0.309,17.392-2.869
	c6.5-3.823,12.33-8.684,17.26-14.39c4.145-3.774,8.572-7.228,13.243-10.329c1.81-1.368,7.946-4.988,7.107-7.901
	c-0.839-2.913-7.857-2.781-10.329-3.708c-6.764-2.21-13.396-4.804-19.864-7.769c-4.017-1.942-11.08-4.679-13.243-8.828
	c-1.413-2.34-0.53-6.798,2.56-6.445s4.414,4.414,7.063,5.297c5.419,2.73,10.99,5.147,16.686,7.239
	c2.649,0.706,5.518,0.618,8.122,1.236c4.24,0.659,8.36,1.938,12.227,3.796c4.679,2.737,5.43,3.752,8.828-1.457
	c2.713-4.082,5.965-7.779,9.667-10.991c3.23-3.586,6.825-6.826,10.727-9.667c1.247-0.981,2.847-1.397,4.414-1.148
	c5.121,1.104,0.883,5.43-1.059,7.372c-2.737,2.737-5.518,5.518-8.255,8.343c-1.984,2.623-4.249,5.021-6.754,7.151
	c-4.789,3.226-7.807,8.495-8.166,14.258c-0.441,5.871,2.295,11.477,1.81,17.657s-2.295,11.786-2.693,17.657
	c-0.397,5.871,0.441,11.654-0.265,17.657c-0.309,2.649-3.84,13.243-7.328,11.565c-3.487-1.677-1.986-17.171-1.633-20.968
	c-0.229-4.285,0.158-8.581,1.148-12.757c1.332-4.029,2.321-8.164,2.958-12.36C67.576,55.13,68.812,42.02,62.058,46.302z"/>
</svg>
