<?xml version="1.0" encoding="utf-8"?>
<!-- Generator: Adobe Illustrator 17.0.0, SVG Export Plug-In . SVG Version: 6.00 Build 0)  -->
<!DOCTYPE svg PUBLIC "-//W3C//DTD SVG 1.1//EN" "http://www.w3.org/Graphics/SVG/1.1/DTD/svg11.dtd">
<svg version="1.1" id="Layer_1" xmlns="http://www.w3.org/2000/svg" xmlns:xlink="http://www.w3.org/1999/xlink" x="0px" y="0px"
	 width="114px" height="96.5px" viewBox="7.75 0.75 114 96.5" enable-background="new 7.75 0.75 114 96.5" xml:space="preserve">
<path fill="#CCCCCC" d="M72.666,36.276c-0.883,0.441-1.324,0.441-6.312,5.429s-3.664,2.825-4.988,4.988
	c-7.769,12.978-22.91,21.586-28.119,35.976c-0.847,3.128-2.172,6.105-3.929,8.828c-2.384,3.134-8.122,5.518-7.372,0
	c0.82-3.094,2.052-6.063,3.664-8.828c1.014-3.146,2.253-6.214,3.708-9.182c2.646-4.338,5.77-8.366,9.314-12.007
	c1.082-1.09,2.085-2.255,3.002-3.487c8.342-9.371,17.184-18.286,26.485-26.706c-0.181-0.903-0.478-1.778-0.883-2.604
	c-1.368-2.384-10.594,0.75-12.757,0.971c-5.663,0.195-11.326-0.415-16.818-1.81c-5.209-0.839-10.462-1.236-15.671-1.854
	c-3.439-0.01-6.822-0.875-9.844-2.516c-4.812-4.414,4.414-5.783,6.886-6.268c1.104,0,3.046,0.397,5.209,0.397
	c3.998,0.336,7.957,1.031,11.83,2.075c5.193,0.978,10.496,1.23,15.759,0.75c7.239-0.574,14.037-1.854,21.056,0.839
	c5.43,2.075,8.828,0,12.669-3.531c6.092-5.165,22.071-19.334,30.9-12.89c6.665,4.9-3.178,6.268-6.401,7.592
	c-9.379,3.61-17.612,9.679-23.837,17.569c-1.738,1.865-2.674,4.338-2.604,6.886c-0.32,5.289-0.128,10.596,0.574,15.847
	c2.119,7.195,1.148,13.728,2.119,20.968c0.574,4.414-1.81,13.243-7.107,7.901c-0.392-0.949-0.544-1.98-0.441-3.002
	c-0.018-3.762-0.614-7.499-1.766-11.08c-1.413-7.813,0.353-16.465-1.854-24.058C74.962,42.721,72.534,36.365,72.666,36.276z"/>
</svg>
