<?xml version="1.0" encoding="utf-8"?>
<!-- Generator: Adobe Illustrator 17.0.0, SVG Export Plug-In . SVG Version: 6.00 Build 0)  -->
<!DOCTYPE svg PUBLIC "-//W3C//DTD SVG 1.1//EN" "http://www.w3.org/Graphics/SVG/1.1/DTD/svg11.dtd">
<svg version="1.1" id="Layer_1" xmlns="http://www.w3.org/2000/svg" xmlns:xlink="http://www.w3.org/1999/xlink" x="0px" y="0px"
	 width="85.5px" height="103.5px" viewBox="20.75 -2.75 85.5 103.5" enable-background="new 20.75 -2.75 85.5 103.5"
	 xml:space="preserve">
<path fill="#CCCCCC" d="M73.72,44.746c-2.981,3.189-5.493,6.786-7.46,10.682c-7.245,10.867-17.946,18.97-30.37,22.998
	c-2.473,0.975-5.076,1.585-7.725,1.81c-2.737,0-6.357-1.986-3.443-5.121c3.576-3.752,11.124-1.898,15.582-4.944
	c5.496-4.425,10.25-9.701,14.081-15.626c3.299-4.02,6.884-7.797,10.727-11.3c1.545-1.501,6.71-5.694,5.606-8.255
	c-1.104-2.56-7.548-1.501-9.932-1.986c-6.466-1.1-12.863-2.574-19.158-4.414c-3.885-1.236-10.682-2.781-13.243-6.136
	c-1.589-1.986-1.324-6.224,1.545-6.312c2.869-0.088,4.723,3.399,7.107,3.929c5.302,1.81,10.713,3.284,16.2,4.414
	c2.472,0.265,5.121,0,7.592,0c3.943,0.053,7.855,0.693,11.609,1.898c4.414,1.854,5.43,2.737,7.813-2.56
	c2.078-4.25,4.721-8.2,7.857-11.742c2.578-3.752,5.537-7.228,8.828-10.373c1.019-1.081,2.443-1.689,3.929-1.677
	c4.811,0.309,1.413,4.9,0,6.93c-2.207,2.913-4.414,5.871-6.577,8.828c-1.499,2.676-3.291,5.178-5.341,7.46
	c-4.002,3.637-6.117,8.908-5.739,14.302c0.265,5.474,3.443,10.241,3.708,15.847c0.265,5.606-0.706,11.168-0.353,16.73
	s1.81,10.682,1.854,16.112c0,2.516-1.942,12.713-5.341,11.654c-3.399-1.059-3.885-15.582-3.973-19.114
	c-0.731-3.929-0.895-7.943-0.486-11.918c0.731-3.874,1.144-7.801,1.236-11.742C79.856,52.118,79.591,39.89,73.72,44.746z"/>
</svg>
