<?xml version="1.0" encoding="utf-8"?>
<!-- Generator: Adobe Illustrator 17.0.0, SVG Export Plug-In . SVG Version: 6.00 Build 0)  -->
<!DOCTYPE svg PUBLIC "-//W3C//DTD SVG 1.1//EN" "http://www.w3.org/Graphics/SVG/1.1/DTD/svg11.dtd">
<svg version="1.1" id="Layer_1" xmlns="http://www.w3.org/2000/svg" xmlns:xlink="http://www.w3.org/1999/xlink" x="0px" y="0px"
	 width="79.5px" height="103.5px" viewBox="0 0 79.5 103.5" enable-background="new 0 0 79.5 103.5" xml:space="preserve">
<path fill="#CCCCCC" d="M50.183,46.711c-0.328,0.82-0.287,1.189-4.102,6.03c-3.815,4.84-2.092,3.486-3.856,4.84
	c-10.623,7.998-16.694,22.067-28.712,27.974c-2.631,1.07-5.091,2.521-7.301,4.307c-2.502,2.379-4.102,7.629,0.861,6.44
	c2.681-1.039,5.217-2.418,7.547-4.102c2.653-1.179,5.216-2.55,7.67-4.102c3.408-2.786,6.503-5.936,9.229-9.393
	c0.828-1.063,1.748-2.051,2.748-2.953c7.406-8.129,14.375-16.645,20.878-25.513c0.798,0.057,1.585,0.222,2.338,0.492
	c2.215,0.984,0.369,9.311,0.369,11.239c0.371,4.977,1.434,9.878,3.158,14.561c1.272,4.471,2.092,9.024,3.117,13.536
	c0.574,2.379,1.231,6.891,3.158,8.532c4.512,3.815,4.635-4.348,4.84-6.604c0-0.984-0.656-2.625-0.861-4.512
	c-0.658-3.477-1.647-6.883-2.953-10.172c-1.324-4.45-2.041-9.058-2.133-13.7c0-6.399,0.328-12.305-2.707-18.335
	c-2.338-4.553-0.738-7.547,1.887-11.403c4.102-5.783,14.807-21.206,8.203-28.261c-4.922-5.373-5.168,3.363-6.03,6.317
	c-2.326,8.495-6.903,16.205-13.248,22.313c-1.447,1.723-3.538,2.776-5.783,2.912c-4.589,0.807-9.247,1.151-13.905,1.025
	c-6.169-0.513-12.371-0.513-18.54,0c-4.102,0-11.403,2.789-6.235,6.973c0.89,0.211,1.817,0.211,2.707,0
	c3.271-0.361,6.579-0.209,9.803,0.451c6.973,0.533,14.356-1.846,21.206-0.615C44.235,45.317,50.183,46.834,50.183,46.711z"/>
</svg>
