<?xml version="1.0" encoding="utf-8"?>
<!-- Generator: Adobe Illustrator 17.0.0, SVG Export Plug-In . SVG Version: 6.00 Build 0)  -->
<!DOCTYPE svg PUBLIC "-//W3C//DTD SVG 1.1//EN" "http://www.w3.org/Graphics/SVG/1.1/DTD/svg11.dtd">
<svg version="1.1" id="Layer_1" xmlns="http://www.w3.org/2000/svg" xmlns:xlink="http://www.w3.org/1999/xlink" x="0px" y="0px"
	 width="96.454px" height="102px" viewBox="0 0 96.454 102" enable-background="new 0 0 96.454 102" xml:space="preserve">
<path fill="#CCCCCC" d="M41.805,47.951c0,3.692-4.84,6.891-7.547,8.696c-8.203,5.332-16.12,10.623-25.964,11.649
	c-3.24,0.328-8.532,1.354-6.522,5.947c4.881,10.993,23.872-7.957,29.04-10.747c3.481-1.681,6.779-3.715,9.844-6.07
	c2.312-2.586,4.836-4.973,7.547-7.137c5.004-3.035,2.625,6.194,2.174,8.614c-0.451,2.42-1.354,5.701-2.051,8.573
	c-0.943,4.102-0.451,7.957-1.231,11.895c-0.779,3.938-6.112,14.766-2.297,18.581c2.42,2.379,4.963-0.943,5.824-3.117
	c0.513-2.813,0.679-5.678,0.492-8.532c0.922-3.697,2.3-7.266,4.102-10.623c1.82-5.506,2.408-11.345,1.723-17.104
	c-0.752-4.153-0.252-8.436,1.436-12.305c3.023-4.213,6.488-8.091,10.336-11.567c3.281-3.774,6.03-7.916,9.188-11.772
	c3.423-3.716,7.231-7.058,11.362-9.967c2.543-2.01,8.942-6.112,4.102-9.352c-3.199-2.133-9.557,5.209-11.362,7.055
	c-3.774,3.815-7.137,8.203-10.993,11.731c-3.856,3.527-8.203,7.383-11.854,11.403c-2.912,3.117-5.906,6.44-10.623,6.071
	c-4.54-0.597-8.941-1.986-13.002-4.102c-5.947-2.83-11.239-8.203-17.76-9.598c-3.692-0.861-8.203,0.984-4.471,5.004
	c3.113,2.216,6.506,4.009,10.09,5.332c4.102,2.338,8.203,4.102,12.551,6.112C38.113,43.603,41.928,45.121,41.805,47.951z"/>
</svg>
