<?xml version="1.0" encoding="utf-8"?>
<!-- Generator: Adobe Illustrator 17.0.0, SVG Export Plug-In . SVG Version: 6.00 Build 0)  -->
<!DOCTYPE svg PUBLIC "-//W3C//DTD SVG 1.1//EN" "http://www.w3.org/Graphics/SVG/1.1/DTD/svg11.dtd">
<svg version="1.1" id="Layer_1" xmlns="http://www.w3.org/2000/svg" xmlns:xlink="http://www.w3.org/1999/xlink" x="0px" y="0px"
	 width="107px" height="114.5px" viewBox="0 0 107 114.5" enable-background="new 0 0 107 114.5" xml:space="preserve">
<path fill="#CCCCCC" d="M67.364,43.962c-0.697,0.656-1.107,0.779-4.389,6.932s-2.666,3.692-3.281,6.112
	c-3.651,14.438-15.505,26.866-16.407,41.92c0.064,3.188-0.351,6.368-1.231,9.434c-1.313,3.61-6.071,7.465-6.973,1.928
	c-0.131-3.225,0.172-6.454,0.902-9.598c0.088-3.219,0.417-6.428,0.984-9.598c1.371-4.73,3.256-9.297,5.619-13.618
	c0.738-1.314,1.369-2.686,1.887-4.102c5.127-11.243,10.864-22.197,17.186-32.814c-0.424-0.801-0.948-1.545-1.559-2.215
	c-1.969-1.846-9.762,3.692-11.772,4.553c-5.304,1.766-10.824,2.801-16.407,3.076c-5.127,0.656-10.172,1.805-15.299,2.707
	c-3.309,1.025-6.827,1.18-10.213,0.451c-5.824-2.953,2.502-6.686,4.758-7.875c0.943-0.492,2.953-0.451,5.004-1.066
	c3.871-0.835,7.813-1.302,11.772-1.395c5.181-0.557,10.261-1.827,15.094-3.774c6.645-2.625,12.674-5.783,20.057-5.25
	c5.742,0.41,8.203-2.502,10.952-6.891c4.102-6.604,15.422-24.61,25.513-20.96c7.67,2.707-1.19,6.809-3.897,8.983
	c-7.747,6.013-13.727,14.005-17.309,23.134c-1.144,2.236-1.336,4.839-0.533,7.219c1.805,4.594,2.338,10.705,5.045,14.807
	c4.102,6.194,4.963,12.592,7.957,19.155c1.805,4.102,2.051,13.002-4.471,9.516c-0.625-0.809-1.059-1.748-1.272-2.748
	c-1.055-3.538-2.661-6.888-4.758-9.926c-3.568-6.973-4.389-15.628-8.655-22.149C71.343,49.376,67.241,44.085,67.364,43.962z"/>
</svg>
