<?xml version="1.0" encoding="utf-8"?>
<!-- Generator: Adobe Illustrator 17.0.0, SVG Export Plug-In . SVG Version: 6.00 Build 0)  -->
<!DOCTYPE svg PUBLIC "-//W3C//DTD SVG 1.1//EN" "http://www.w3.org/Graphics/SVG/1.1/DTD/svg11.dtd">
<svg version="1.1" id="Layer_1" xmlns="http://www.w3.org/2000/svg" xmlns:xlink="http://www.w3.org/1999/xlink" x="0px" y="0px"
	 width="110px" height="126.5px" viewBox="7.75 -14.25 110 126.5" enable-background="new 7.75 -14.25 110 126.5"
	 xml:space="preserve">
<path fill="#CCCCCC" d="M57.697,49.864c0.353,4.414-4.767,8.828-7.725,11.256c-8.828,7.328-17.657,14.611-28.913,17.171
	c-3.752,0.795-9.844,2.737-6.842,7.857c7.195,12.272,26.971-12.581,32.621-16.509c3.9-2.543,7.512-5.503,10.771-8.828
	c2.381-3.351,5.039-6.496,7.946-9.402c5.43-4.414,3.929,6.974,3.708,9.844c-0.221,2.869-0.839,6.886-1.28,10.329
	c-0.574,4.723,0.574,9.402,0,14.126s-5.209,18.187,0,22.071c3.134,2.472,5.694-1.81,6.401-4.414
	c0.227-3.366,0.035-6.746-0.574-10.064c0.607-4.537,1.763-8.984,3.443-13.243c1.399-6.708,1.294-13.643-0.309-20.305
	c-1.456-4.807-1.456-9.937,0-14.744C79.94,39.649,83.491,34.619,87.537,30c3.355-4.856,6.003-10.109,9.182-15.053
	c3.514-4.834,7.539-9.274,12.007-13.243c2.737-2.737,9.667-8.431,3.443-11.565c-4.105-2.031-10.55,7.416-12.448,9.844
	c-3.929,4.988-7.283,10.373-11.3,15.273c-4.017,4.9-8.564,9.711-12.404,14.964c-3.002,4.061-6.092,8.387-11.654,8.564
	c-5.389,0.093-10.752-0.759-15.847-2.516c-7.372-2.516-14.302-8.034-22.071-8.828c-4.414-0.441-9.623,2.34-4.414,6.489
	c3.443,2.913,8.519,3.178,12.536,4.9c5.076,2.251,10.373,3.664,15.582,5.518C52.929,45.229,57.343,46.421,57.697,49.864z"/>
</svg>
