<?xml version="1.0" encoding="utf-8"?>
<!-- Generator: Adobe Illustrator 17.0.0, SVG Export Plug-In . SVG Version: 6.00 Build 0)  -->
<!DOCTYPE svg PUBLIC "-//W3C//DTD SVG 1.1//EN" "http://www.w3.org/Graphics/SVG/1.1/DTD/svg11.dtd">
<svg version="1.1" id="Layer_1" xmlns="http://www.w3.org/2000/svg" xmlns:xlink="http://www.w3.org/1999/xlink" x="0px" y="0px"
	 width="49.75px" height="67.25px" viewBox="0 0 49.75 67.25" enable-background="new 0 0 49.75 67.25" xml:space="preserve">
<path fill="#CCCCCC" d="M27.511,29.913c3.953,0.711,7.629,3.518,11.562,4.664c1.921,0.254,3.792,0.794,5.554,1.601
	c0.46,0.28,0.984,0.437,1.522,0.455c3.676-1.245,0.198-4.348-1.976-5.119c-3.538-1.206-6.344-3.162-10.159-3.834
	c-2.591-0.881-5.087-2.02-7.451-3.399c-1.219-0.529-2.159-1.548-2.589-2.806c-2.189-4.644-3.09-9.79-2.609-14.902
	c0.119-1.798,1.759-6.641-1.976-4.704c-5,2.569-2.154,13.261-1.146,17.273c0.652,2.629,0.909,4.625-1.285,6.641
	c-2.885,2.629-3.953,6.067-5.237,9.546c-0.992,2.539-2.321,4.932-3.953,7.115c-1.364,1.548-2.588,3.215-3.656,4.98
	c-0.514,1.008-1.245,1.759-1.403,2.312c-0.356,1.265-1.976,5.811,1.304,4.625c1.403-0.494,2.708-2.846,3.498-4.071
	c1.463-2.253,2.866-4.605,4.427-6.799c1.834-2.238,3.351-4.719,4.506-7.372c0.395-1.067,1.067-6.048,2.49-6.127
	c0.475,0.013,0.947,0.086,1.403,0.217c1.772,6.196,3.877,12.292,6.305,18.262c0.36,0.713,0.664,1.453,0.909,2.214
	c0.791,2.458,1.859,4.818,3.182,7.036c1.062,1.363,2.232,2.639,3.498,3.814c0.947,1.408,2.077,2.684,3.36,3.795
	c2.411,1.759,2.668-1.542,1.759-3.36c-0.846-1.431-1.905-2.724-3.142-3.834c-5.475-5.731-5.929-14.704-10.159-21.285
	c-0.711-1.107,0,0-1.166-3.439c-1.166-3.439-1.047-3.676-1.047-4.17C23.756,29.34,27.254,29.657,27.511,29.913z"/>
</svg>
