<?xml version="1.0" encoding="utf-8"?>
<!-- Generator: Adobe Illustrator 17.0.0, SVG Export Plug-In . SVG Version: 6.00 Build 0)  -->
<!DOCTYPE svg PUBLIC "-//W3C//DTD SVG 1.1//EN" "http://www.w3.org/Graphics/SVG/1.1/DTD/svg11.dtd">
<svg version="1.1" id="Layer_1" xmlns="http://www.w3.org/2000/svg" xmlns:xlink="http://www.w3.org/1999/xlink" x="0px" y="0px"
	 width="50.5px" height="69px" viewBox="0 0 50.5 69" enable-background="new 0 0 50.5 69" xml:space="preserve">
<path fill="#CCCCCC" d="M29.451,28.464c-0.414,1.37-0.588,2.801-0.514,4.229c-0.198,3.617-0.395,2.352,0,3.597
	c1.64,7.49-0.949,15.811,2.115,23.025c0.733,1.42,1.259,2.937,1.561,4.506c0.198,1.976-1.087,4.862-2.806,2.49
	c-0.714-1.423-1.245-2.93-1.581-4.486c-0.742-1.498-1.35-3.059-1.818-4.664c-0.494-2.518-0.693-5.085-0.593-7.649
	c0.069-0.776,0.069-1.556,0-2.332c-0.214-6.333-0.082-12.674,0.395-18.993c-0.375-0.275-0.788-0.495-1.225-0.652
	c-1.344-0.395-3.656,3.953-4.348,4.822c-2.085,2.068-4.446,3.837-7.016,5.257c-2.214,1.482-4.289,3.182-6.443,4.763
	c-1.283,1.236-2.862,2.121-4.585,2.569c-3.36,0-0.395-3.656,0.296-4.684c0.316-0.455,1.285-0.889,1.976-1.66
	c1.594-1.267,3.301-2.385,5.099-3.34c2.255-1.442,4.297-3.191,6.067-5.198c2.091-2.945,4.847-5.356,8.044-7.036
	c2.708-1.127,3.162-3.044,3.439-5.692c0.435-3.953,1.463-14.823,6.917-15.495c4.15-0.514,1.028,3.419,0.316,5.119
	c-2.177,4.529-3.099,9.559-2.668,14.566c-0.015,1.289,0.491,2.528,1.403,3.439c1.719,2.075,3.639,3.975,5.731,5.672
	c3.281,1.976,5.178,4.644,8.044,6.977c1.779,1.443,3.953,5.514,0,5.435c-0.484-0.214-0.906-0.547-1.225-0.968
	c-1.276-1.391-2.763-2.571-4.407-3.498c-3.241-2.391-5.613-6.206-9.072-8.222C32.514,30.045,29.431,28.563,29.451,28.464z"/>
</svg>
