<?xml version="1.0" encoding="utf-8"?>
<!-- Generator: Adobe Illustrator 17.0.0, SVG Export Plug-In . SVG Version: 6.00 Build 0)  -->
<!DOCTYPE svg PUBLIC "-//W3C//DTD SVG 1.1//EN" "http://www.w3.org/Graphics/SVG/1.1/DTD/svg11.dtd">
<svg version="1.1" id="Layer_1" xmlns="http://www.w3.org/2000/svg" xmlns:xlink="http://www.w3.org/1999/xlink" x="0px" y="0px"
	 width="96.454px" height="70.922px" viewBox="0 0 96.454 70.922" enable-background="new 0 0 96.454 70.922" xml:space="preserve">
<path fill="#CCCCCC" d="M53.677,26.257c-0.779,0.287-1.148,0.246-5.824,4.102s-3.363,2.01-4.676,3.733
	c-7.752,10.131-21.329,15.874-27.071,27.482c-1.021,2.524-2.402,4.887-4.102,7.014c-2.297,2.379-7.342,3.815-6.194-0.861
	c1.053-2.585,2.431-5.024,4.102-7.26c1.179-2.548,2.55-5.002,4.102-7.342c2.595-3.276,5.538-6.261,8.778-8.901
	c1.027-0.795,1.987-1.673,2.871-2.625c7.84-7.069,16.055-13.71,24.61-19.893c-0.043-0.783-0.195-1.556-0.451-2.297
	c-0.902-2.133-8.983-0.41-10.829-0.41c-4.787-0.397-9.494-1.46-13.987-3.158c-4.102-1.19-8.655-2.051-12.961-3.076
	c-2.297-0.533-6.645-1.19-8.203-3.076c-3.61-4.348,4.102-4.43,6.399-4.594c0.943,0,2.502,0.656,4.348,0.861
	c3.323,0.65,6.578,1.611,9.721,2.871c4.27,1.319,8.699,2.05,13.167,2.174c6.011-0.509,12.056,0.418,17.637,2.707
	c4.348,2.256,7.26,0.738,10.952-1.723c5.619-3.774,20.509-14.151,27.235-7.875c5.127,4.758-3.281,4.963-6.112,5.783
	c-8.149,2.104-15.585,6.353-21.534,12.305c-1.655,1.385-2.677,3.384-2.83,5.537c-0.813,4.409-1.184,8.889-1.107,13.372
	c0.493,5.924,0.493,11.878,0,17.801c0,3.815-2.789,10.993-6.768,5.989c-0.212-0.848-0.212-1.736,0-2.584
	c0.389-3.158,0.264-6.357-0.369-9.475c-0.451-6.686,1.887-13.782,0.738-20.509C54.989,31.917,53.553,26.298,53.677,26.257z"/>
</svg>
