<?xml version="1.0" encoding="utf-8"?>
<!-- Generator: Adobe Illustrator 17.0.0, SVG Export Plug-In . SVG Version: 6.00 Build 0)  -->
<!DOCTYPE svg PUBLIC "-//W3C//DTD SVG 1.1//EN" "http://www.w3.org/Graphics/SVG/1.1/DTD/svg11.dtd">
<svg version="1.1" id="Layer_1" xmlns="http://www.w3.org/2000/svg" xmlns:xlink="http://www.w3.org/1999/xlink" x="0px" y="0px"
	 width="50.5px" height="72px" viewBox="0 0 50.5 72" enable-background="new 0 0 50.5 72" xml:space="preserve">
<path fill="#CCCCCC" d="M25.6,31.141c0,0.494-0.158,0.692,0.652,4.19s0.198,2.372,0.791,3.518
	c3.459,6.898,3.083,15.811,7.905,21.918c1.117,1.213,2.037,2.594,2.727,4.091c0.692,1.976,0.178,5-2.095,3.142
	c-1.116-1.232-2.072-2.6-2.846-4.071c-1.089-1.278-2.068-2.647-2.925-4.091c-1.078-2.308-1.899-4.727-2.451-7.214
	c-0.177-0.779-0.408-1.545-0.692-2.293c-1.795-6.124-3.266-12.339-4.407-18.617c-0.435-0.181-0.895-0.294-1.364-0.336
	c-1.403,0-2.55,4.763-3.044,5.791c-1.466,2.489-3.261,4.769-5.336,6.779c-1.68,1.976-3.38,4.15-5.059,6.245
	c-0.942,1.522-2.254,2.78-3.814,3.656c-3.301,0.83-1.324-3.459-0.85-4.684C2.99,48.612,3.8,47.98,4.354,47.031
	c1.245-1.624,2.627-3.138,4.131-4.526c1.782-1.991,3.291-4.211,4.486-6.601c1.68-3.32,2.965-6.581,6.087-8.913
	c2.372-1.779,2.312-3.795,1.976-6.403c-0.573-3.953-2.273-14.744,2.826-16.858c3.953-1.542,1.858,3.083,1.542,4.822
	c-0.971,4.983-0.589,10.136,1.107,14.922c0.319,1.268,1.139,2.352,2.273,3.004c2.227,1.595,4.611,2.959,7.115,4.071
	c3.676,1.047,6.226,3.221,9.625,4.783c1.976,0.949,5.237,4.368,1.482,5.218c-0.516-0.099-1.003-0.316-1.423-0.632
	c-1.616-1.023-3.384-1.783-5.237-2.253c-3.775-1.522-7.016-4.625-10.83-5.751C29.098,31.853,25.639,31.2,25.6,31.141z"/>
</svg>
