<svg width="171" height="215" viewBox="0 0 171 215" fill="none" xmlns="http://www.w3.org/2000/svg">
<rect x="11.5996" y="128.527" width="18.6393" height="18.6393" transform="rotate(38.4844 11.5996 128.527)" fill="#26BCB4"/>
<rect x="131.18" y="184" width="22.359" height="22.359" transform="rotate(30 131.18 184)" fill="#F15D31"/>
<g clip-path="url(#clip0_1832_2066)">
<path d="M136.468 115.467C150.038 101.896 146.195 76.0511 127.883 57.7397C109.572 39.4283 83.7266 35.5849 70.1562 49.1553C56.5859 62.7256 60.4293 88.5709 78.7407 106.882C97.052 125.194 122.897 129.037 136.468 115.467Z" fill="#9BE8E4"/>
<path d="M97.7438 120.409C104.399 113.753 104.403 102.966 97.7524 96.3156C91.1016 89.6648 80.3148 89.6686 73.6593 96.3241C67.0037 102.98 66.9999 113.767 73.6507 120.417C80.3014 127.068 91.0883 127.064 97.7438 120.409Z" fill="#9BE8E4"/>
<path d="M141.408 76.7446C148.063 70.0891 148.067 59.3023 141.416 52.6515C134.766 46.0007 123.979 46.0046 117.323 52.6601C110.668 59.3156 110.664 70.1025 117.315 76.7532C123.966 83.404 134.752 83.4001 141.408 76.7446Z" fill="#9BE8E4"/>
<path d="M116.055 103.35C114.5 101.795 111.978 101.795 110.422 103.351C108.867 104.907 108.866 107.428 110.421 108.983L115.738 114.301C117.293 115.856 119.815 115.855 121.37 114.299C122.926 112.743 122.927 110.222 121.372 108.667L116.055 103.35Z" fill="#282560"/>
<path d="M129.983 89.4199C128.428 87.865 125.907 87.8657 124.351 89.4214C122.795 90.9771 122.795 93.4988 124.35 95.0537L129.667 100.371C131.222 101.926 133.743 101.925 135.299 100.369C136.855 98.8137 136.856 96.2921 135.301 94.7372L129.983 89.4199Z" fill="#282560"/>
<path d="M107.835 120.327L95.3155 133.474" stroke="#282560" stroke-width="2" stroke-miterlimit="10"/>
<path d="M112.32 121.107L111.623 136.164" stroke="#282560" stroke-width="2" stroke-miterlimit="10"/>
<path d="M140.923 87.2383L154.069 74.7187" stroke="#282560" stroke-width="2" stroke-miterlimit="10"/>
<path d="M141.704 91.7227L156.76 91.0265" stroke="#282560" stroke-width="2" stroke-miterlimit="10"/>
<path d="M70.1565 49.1545L66.2469 45.2449C63.2604 42.2584 61.5835 38.2071 61.585 33.982C61.5865 29.757 63.2663 25.7044 66.2549 22.7158" stroke="#282560" stroke-width="2" stroke-miterlimit="10"/>
</g>
<defs>
<clipPath id="clip0_1832_2066">
<rect width="95.8375" height="115.377" fill="white" transform="translate(21 67.7656) rotate(-45)"/>
</clipPath>
</defs>
</svg>
