<svg width="335" height="99" viewBox="0 0 335 99" fill="none" xmlns="http://www.w3.org/2000/svg">
<rect x="1.49414" y="20.4941" width="332" height="58" rx="29" fill="black" stroke="#5BB9B3" stroke-width="2"/>
<path d="M157.214 19.4946C159.481 18.6503 161.522 17.2722 163.206 15.3637C164.88 13.4649 166.177 11.0684 166.996 8.20012C167.815 11.0665 169.111 13.462 170.784 15.3607C172.467 17.2698 174.508 18.6488 176.775 19.4937C174.508 20.338 172.467 21.7161 170.784 23.6247C169.11 25.5235 167.814 27.9199 166.995 30.7882C166.176 27.9217 164.88 25.5261 163.206 23.6275C161.523 21.7184 159.481 20.3395 157.214 19.4946Z" fill="black" stroke="#5BB9B3" stroke-width="2"/>
<path d="M157.214 79.4946C159.481 78.6503 161.522 77.2722 163.206 75.3637C164.88 73.4649 166.177 71.0684 166.996 68.2001C167.815 71.0665 169.111 73.462 170.784 75.3607C172.467 77.2698 174.508 78.6488 176.775 79.4937C174.508 80.338 172.467 81.7161 170.784 83.6247C169.11 85.5235 167.814 87.9199 166.995 90.7882C166.176 87.9217 164.88 85.5261 163.206 83.6275C161.523 81.7184 159.481 80.3395 157.214 79.4946Z" fill="black" stroke="#5BB9B3" stroke-width="2"/>
</svg>
