<svg width="34" height="34" viewBox="0 0 34 34" fill="none" xmlns="http://www.w3.org/2000/svg">
<g clip-path="url(#clip0_1110_2003)">
<path d="M17.0335 33.9999C26.4042 33.9999 34.0006 26.3922 34.0006 17.0077C34.0006 7.62326 26.4042 0.015625 17.0335 0.015625C7.66283 0.015625 0.0664062 7.62326 0.0664062 17.0077C0.0664062 26.3922 7.66283 33.9999 17.0335 33.9999Z" fill="#F15D31"/>
<path d="M17.0332 28.4869C23.3639 28.4869 28.496 23.3472 28.496 17.0071C28.496 10.667 23.3639 5.52734 17.0332 5.52734C10.7024 5.52734 5.57031 10.667 5.57031 17.0071C5.57031 23.3472 10.7024 28.4869 17.0332 28.4869Z" fill="#9BE8E4"/>
<path d="M17 9.97656V17.3236H24.3471" stroke="#282560" stroke-width="2"/>
</g>
<defs>
<clipPath id="clip0_1110_2003">
<rect width="34" height="34" fill="white"/>
</clipPath>
</defs>
</svg>
