<svg width="32" height="142" viewBox="0 0 32 142" fill="none" xmlns="http://www.w3.org/2000/svg">
<g clip-path="url(#clip0_1056_1641)">
<path d="M15.9936 48.942L1.31006 16.1423L15.9936 1.32227L30.6903 16.1423L15.9936 48.942Z" stroke="#5BB9B3" stroke-width="2" stroke-linecap="round" stroke-linejoin="round"/>
<path d="M1.31006 16.1426L15.9936 21.087L30.6903 16.1426" stroke="#5BB9B3" stroke-width="2" stroke-linecap="round" stroke-linejoin="round"/>
<path d="M15.9937 1.32227V48.942" stroke="#5BB9B3" stroke-width="2" stroke-linecap="round" stroke-linejoin="round"/>
<path d="M15.9936 68.3362C18.3231 68.3362 20.2114 66.4303 20.2114 64.0792C20.2114 61.7282 18.3231 59.8223 15.9936 59.8223C13.6642 59.8223 11.7759 61.7282 11.7759 64.0792C11.7759 66.4303 13.6642 68.3362 15.9936 68.3362Z" fill="#5BB9B3"/>
<path d="M15.9934 54.494C17.5126 54.494 18.7441 53.251 18.7441 51.7177C18.7441 50.1844 17.5126 48.9414 15.9934 48.9414C14.4742 48.9414 13.2427 50.1844 13.2427 51.7177C13.2427 53.251 14.4742 54.494 15.9934 54.494Z" fill="#5BB9B3"/>
<path d="M15.9934 79.2166C17.5126 79.2166 18.7441 77.9736 18.7441 76.4403C18.7441 74.907 17.5126 73.6641 15.9934 73.6641C14.4742 73.6641 13.2427 74.907 13.2427 76.4403C13.2427 77.9736 14.4742 79.2166 15.9934 79.2166Z" fill="#5BB9B3"/>
<path d="M16.255 80.0098C21.0623 83.5022 24.5167 88.5733 26.0266 94.354C28.4236 103.886 24.8088 114.317 24.8088 114.317L20.0279 108.711C20.0279 108.711 22.9751 122.381 19.7005 129.56C17.6917 133.913 14.6828 137.72 10.9241 140.665C10.9241 140.665 15.26 127.537 10.2302 115.771C8.57408 111.424 7.57182 106.853 7.25674 102.207L13.0328 95.5966L6.58838 95.7154C6.58838 95.7154 6.8109 83.7908 16.255 80.0098Z" stroke="#5BB9B3" stroke-width="2" stroke-linecap="round" stroke-linejoin="round"/>
</g>
<defs>
<clipPath id="clip0_1056_1641">
<rect width="32" height="142" fill="white"/>
</clipPath>
</defs>
</svg>
