<svg width="82" height="121" viewBox="0 0 82 121" fill="none" xmlns="http://www.w3.org/2000/svg">
<g clip-path="url(#clip0_1050_1577)">
<path d="M22.2226 77.5204C31.5326 77.5204 39.0799 69.9011 39.0799 60.5024C39.0799 51.1036 31.5326 43.4844 22.2226 43.4844C12.9125 43.4844 5.36523 51.1036 5.36523 60.5024C5.36523 69.9011 12.9125 77.5204 22.2226 77.5204Z" stroke="#5BB9B3" stroke-width="2" stroke-linecap="round" stroke-linejoin="round"/>
<path d="M22.2226 38.1016L22.2227 0.369141" stroke="#5BB9B3" stroke-width="2" stroke-linecap="round" stroke-linejoin="round"/>
<path d="M31.227 40.1972L46.1695 5.61524" stroke="#5BB9B3" stroke-width="2" stroke-linecap="round" stroke-linejoin="round"/>
<path d="M27.0649 38.1012L30.8764 16.3242" stroke="#5BB9B3" stroke-width="2" stroke-linecap="round" stroke-linejoin="round"/>
<path d="M22.2227 82.9023L22.2226 120.631" stroke="#5BB9B3" stroke-width="2" stroke-linecap="round" stroke-linejoin="round"/>
<path d="M27.0649 82.9023L30.8764 104.679" stroke="#5BB9B3" stroke-width="2" stroke-linecap="round" stroke-linejoin="round"/>
<path d="M44.2583 60.502L81.6346 60.502" stroke="#5BB9B3" stroke-width="2" stroke-linecap="round" stroke-linejoin="round"/>
<path d="M40.7026 47.8969L69.389 23.7109" stroke="#5BB9B3" stroke-width="2" stroke-linecap="round" stroke-linejoin="round"/>
<path d="M42.8149 54.0204L63.8638 47.8965" stroke="#5BB9B3" stroke-width="2" stroke-linecap="round" stroke-linejoin="round"/>
<path d="M36.1382 42.9524L49.9844 25.8164" stroke="#5BB9B3" stroke-width="2" stroke-linecap="round" stroke-linejoin="round"/>
<path d="M31.2271 80.8027L46.1695 115.388" stroke="#5BB9B3" stroke-width="2" stroke-linecap="round" stroke-linejoin="round"/>
<path d="M40.7026 73.1035L69.389 97.2895" stroke="#5BB9B3" stroke-width="2" stroke-linecap="round" stroke-linejoin="round"/>
<path d="M42.8149 66.9805L63.8638 73.1044" stroke="#5BB9B3" stroke-width="2" stroke-linecap="round" stroke-linejoin="round"/>
<path d="M36.1382 78.0469L49.9844 95.1829" stroke="#5BB9B3" stroke-width="2" stroke-linecap="round" stroke-linejoin="round"/>
</g>
<defs>
<clipPath id="clip0_1050_1577">
<rect width="82" height="121" fill="white"/>
</clipPath>
</defs>
</svg>
