<svg width="14" height="19" viewBox="0 0 14 19" fill="none" xmlns="http://www.w3.org/2000/svg">
<path d="M7.36925 9.37824L4.31253 6.67694C4.14659 6.51111 0.727391 3.85345 0.565822 3.76181C1.0942 3.38214 4.05922 0.70697 4.93257 0.349121C5.22514 0.57605 5.69237 0.960138 6.33428 1.49691L8.51765 3.32978C9.32113 4.01493 10.1028 4.69131 10.8626 5.36774C11.6225 6.04416 12.7403 7.11336 12.7403 7.13518C12.8189 7.55512 12.8743 7.97904 12.9063 8.40507C12.9543 8.95494 12.9892 9.50919 13.0154 10.0678C13.0416 10.6264 13.0591 11.1021 13.0591 11.4817C12.5656 11.953 11.9369 12.5247 11.1814 13.2011C10.426 13.8775 9.63995 14.554 8.83647 15.2392L6.6531 17.0721C6.01118 17.6132 5.54391 17.9928 5.25133 18.2241C4.41292 17.8575 1.71863 15.117 1.26012 14.4667C1.42606 14.3751 7.36925 9.37824 7.36925 9.37824Z" fill="#F15D31"/>
</svg>
