<svg width="80" height="107" viewBox="0 0 80 107" fill="none" xmlns="http://www.w3.org/2000/svg">
<g clip-path="url(#clip0_1110_2013)">
<path d="M71.5697 72.4517C71.5697 87.0617 61.4098 92.3916 48.8698 92.3916C36.3298 92.3916 26.1797 87.0617 26.1797 72.4517C26.1797 57.8417 36.3398 46.0117 48.8698 46.0117C61.3997 46.0117 71.5697 57.8517 71.5697 72.4517Z" fill="#26BCB4"/>
<path d="M46.7901 60.4611C62.0718 60.4611 74.4601 48.0728 74.4601 32.7911C74.4601 17.5094 62.0718 5.12109 46.7901 5.12109C31.5084 5.12109 19.1201 17.5094 19.1201 32.7911C19.1201 48.0728 31.5084 60.4611 46.7901 60.4611Z" fill="white"/>
<path d="M46.0801 0C37.8584 0 29.9734 3.26596 24.1598 9.07959C18.3462 14.8932 15.0801 22.7783 15.0801 31C15.0801 39.2217 18.3462 47.1063 24.1598 52.9199C29.9734 58.7336 37.8584 62 46.0801 62C54.3018 62 62.1867 58.7336 68.0004 52.9199C73.814 47.1063 77.0801 39.2217 77.0801 31C77.0801 22.7783 73.814 14.8932 68.0004 9.07959C62.1867 3.26596 54.3018 0 46.0801 0ZM54.3601 43.6499C52.5601 44.2599 50.7701 46.4396 49.8 47.7896C49.7043 47.9247 49.582 48.0391 49.4404 48.125C49.2989 48.2109 49.1411 48.2666 48.9771 48.2891C48.813 48.3116 48.6461 48.3005 48.4867 48.2559C48.3272 48.2112 48.1786 48.1341 48.05 48.0298C46.75 47.0298 44.45 45.3598 42.54 45.2598C39.73 45.0998 40.04 43.0996 40.04 43.0996C41.8756 41.8993 43.3077 40.1749 44.15 38.1499C44.6029 36.8632 45.3533 35.7015 46.3401 34.7598C46.5506 34.5755 46.8102 34.4566 47.0873 34.4175C47.3643 34.3784 47.6467 34.4207 47.9 34.5396C49.0905 35.198 50.1162 36.1181 50.9 37.23C52.2579 38.9535 54.1002 40.2315 56.1901 40.8999C56.1901 40.8999 57.0201 42.7399 54.3501 43.6499M59.5001 39.5596C59.3341 39.2238 59.0968 38.9282 58.8049 38.6934C58.5131 38.4585 58.1736 38.2901 57.8101 38.1997C56.0734 37.6103 54.5426 36.5342 53.4 35.0996C52.2697 33.518 50.7875 32.2205 49.0701 31.3096C48.4809 31.0361 47.8396 30.8929 47.1901 30.8896C46.1419 30.8896 45.1293 31.2701 44.3401 31.96C42.9249 33.292 41.8395 34.9353 41.17 36.7598C40.4534 38.4489 39.2663 39.8963 37.7501 40.9297C37.4062 41.1217 37.1109 41.3901 36.8872 41.7144C36.6635 42.0386 36.5174 42.4101 36.4601 42.7998V42.8696C36.4443 43.096 36.4443 43.3234 36.4601 43.5498C35.4403 43.7869 34.397 43.9075 33.3501 43.9097C29.7025 43.9097 26.204 42.4616 23.6238 39.8833C21.0436 37.305 19.5927 33.8073 19.5901 30.1597C19.5901 26.5129 21.0387 23.0156 23.6173 20.437C26.1959 17.8584 29.6934 16.4097 33.3401 16.4097C35.7042 16.4082 38.0287 17.0166 40.0889 18.1763C42.149 19.336 43.875 21.0078 45.1001 23.0298C45.7493 19.943 47.4401 17.1733 49.8889 15.1851C52.3378 13.1969 55.3957 12.1112 58.55 12.1099C60.3557 12.1085 62.144 12.463 63.8127 13.1528C65.4815 13.8426 66.998 14.854 68.2758 16.1299C69.5535 17.4058 70.5674 18.9211 71.2596 20.5889C71.9519 22.2566 72.3087 24.0439 72.3101 25.8496C72.3121 29.3185 71.0019 32.6597 68.6426 35.2026C66.2832 37.7456 63.0494 39.3021 59.5901 39.5596" fill="#26BCB4"/>
<path d="M33.29 22.2383C31.1903 22.2409 29.1775 23.0763 27.6927 24.561C26.208 26.0458 25.3728 28.0585 25.3701 30.1582C25.3728 32.2596 26.2094 34.2743 27.6963 35.7593C29.1832 37.2443 31.1986 38.0781 33.3 38.0781C35.3988 38.0755 37.4108 37.2399 38.8939 35.7549C40.377 34.2699 41.2101 32.257 41.2101 30.1582C41.2101 28.0577 40.3757 26.0434 38.8904 24.5581C37.4051 23.0728 35.3906 22.2383 33.29 22.2383ZM31.5801 26.9185C31.199 26.9158 30.8342 26.7631 30.5647 26.4937C30.2952 26.2242 30.1428 25.8596 30.1401 25.4785C30.1428 25.0983 30.2955 24.7342 30.5653 24.4663C30.8351 24.1984 31.1999 24.0483 31.5801 24.0483C31.9593 24.0483 32.323 24.1991 32.5912 24.4673C32.8594 24.7355 33.0101 25.0993 33.0101 25.4785C33.0115 25.6671 32.9753 25.8542 32.9041 26.0288C32.8328 26.2035 32.7278 26.3622 32.5948 26.4961C32.4619 26.6299 32.3038 26.7361 32.1296 26.8086C31.9555 26.8811 31.7687 26.9185 31.5801 26.9185ZM36.2201 32.7881C35.3873 32.7881 34.5886 32.4575 33.9998 31.8687C33.4109 31.2798 33.0801 30.4812 33.0801 29.6484C33.0774 29.2349 33.1567 28.8246 33.3135 28.4419C33.4702 28.0592 33.7013 27.7114 33.9933 27.4185C34.2853 27.1256 34.6323 26.8933 35.0145 26.7354C35.3967 26.5774 35.8065 26.4972 36.2201 26.4985C37.0521 26.5012 37.8492 26.8326 38.4375 27.4209C39.0258 28.0092 39.3575 28.8062 39.3601 29.6382C39.3601 30.4719 39.0296 31.2719 38.441 31.8623C37.8525 32.4528 37.0538 32.7854 36.2201 32.7881Z" fill="#282560"/>
<path d="M59.5605 18.0195C57.4608 18.0222 55.448 18.8571 53.9633 20.3418C52.4785 21.8265 51.6433 23.8398 51.6406 25.9395C51.6433 28.0409 52.4799 30.055 53.9668 31.54C55.4537 33.025 57.4691 33.8594 59.5706 33.8594C60.6102 33.8594 61.6395 33.6545 62.5999 33.2564C63.5602 32.8582 64.4327 32.2746 65.1674 31.5391C65.902 30.8035 66.4844 29.9301 66.8813 28.9692C67.2783 28.0084 67.4819 26.9791 67.4806 25.9395C67.4819 24.899 67.2779 23.8682 66.8804 22.9067C66.4828 21.9453 65.8995 21.0716 65.1638 20.3359C64.4281 19.6002 63.5545 19.0172 62.593 18.6196C61.6315 18.2221 60.601 18.0182 59.5605 18.0195ZM57.8506 22.6992C57.6628 22.6992 57.4768 22.6622 57.3033 22.5903C57.1298 22.5185 56.9721 22.4131 56.8394 22.2803C56.7066 22.1475 56.6013 21.9899 56.5294 21.8164C56.4576 21.6429 56.4205 21.4573 56.4205 21.2695C56.4192 21.0809 56.4552 20.8934 56.5265 20.7188C56.5978 20.5441 56.7029 20.3853 56.8358 20.2515C56.9687 20.1176 57.1269 20.0115 57.301 19.939C57.4752 19.8665 57.662 19.8291 57.8506 19.8291C58.2298 19.8291 58.5935 19.9799 58.8617 20.2481C59.1299 20.5162 59.2805 20.88 59.2805 21.2593C59.2818 21.4479 59.2458 21.6349 59.1746 21.8096C59.1033 21.9842 58.9982 22.143 58.8652 22.2769C58.7323 22.4107 58.5743 22.5169 58.4001 22.5894C58.226 22.6619 58.0392 22.6992 57.8506 22.6992ZM62.4906 28.5693C61.6578 28.5693 60.8591 28.2383 60.2703 27.6494C59.6814 27.0606 59.3506 26.262 59.3506 25.4292C59.3506 24.5955 59.6811 23.796 60.2697 23.2056C60.8582 22.6151 61.6569 22.2819 62.4906 22.2793C63.3243 22.2819 64.123 22.6151 64.7115 23.2056C65.3001 23.796 65.6306 24.5955 65.6306 25.4292C65.628 26.2612 65.2963 27.0582 64.708 27.6465C64.1197 28.2348 63.3226 28.5667 62.4906 28.5693Z" fill="#282560"/>
<path d="M75.2503 60.4507C83.2503 68.0207 77.8302 76.6509 70.9702 78.1709C63.3602 70.4009 65.9002 54.8906 65.9002 54.8906C65.9002 54.8906 69.7103 55.2207 75.2503 60.4507Z" fill="#F15D31"/>
<path d="M59.9904 87.7188C59.9904 87.7188 57.8405 94.3389 58.8905 98.8389C59.9405 103.339 66.0204 103.919 65.7104 99.1787C65.4004 94.4387 59.9904 87.7188 59.9904 87.7188Z" fill="#F15D31"/>
<path d="M63.7402 87.5898C65.2841 89.9362 67.089 92.0997 69.1202 94.0396C71.6302 96.1496 73.9202 93.26 71.8602 90.96C70.3602 89.27 63.7402 87.5898 63.7402 87.5898Z" fill="#F15D31"/>
<path d="M39.9295 94.0898C39.9295 94.0898 32.0095 97.4796 29.5195 101.54C27.0295 105.6 32.6796 107.92 35.7096 104.43C38.7396 100.94 39.9295 94.0898 39.9295 94.0898Z" fill="#F15D31"/>
<path d="M36.6794 92.2216C36.6794 92.2216 30.0394 90.6117 27.9194 91.4017C25.0394 92.4717 25.6994 96.0917 28.9194 95.4017C31.6207 94.6326 34.227 93.5627 36.6894 92.2118" fill="#F15D31"/>
<path d="M24.7298 60.0688C24.7298 60.0688 20.0398 61.979 13.4298 58.249C6.81979 54.519 2.63979 53.6487 0.67979 56.7787C-1.28021 59.9087 1.27976 62.7186 4.14976 64.0986C7.01976 65.4786 12.0099 64.3686 12.0099 64.3686C12.0099 64.3686 7.00987 64.8187 4.88987 66.9687C2.76987 69.1187 5.12981 72.3689 8.94981 72.1689C12.7698 71.9689 13.5498 71.0287 13.5498 71.0287C12.8306 71.8031 12.3242 72.7505 12.0798 73.7787C11.8998 75.1187 14.1798 78.5289 19.4398 74.1889C24.0798 70.3589 24.7298 60.0688 24.7298 60.0688Z" fill="#F15D31"/>
</g>
<defs>
<clipPath id="clip0_1110_2013">
<rect width="79.24" height="106.13" fill="white"/>
</clipPath>
</defs>
</svg>
