<svg width="163" height="149" viewBox="0 0 163 149" fill="none" xmlns="http://www.w3.org/2000/svg">
<g filter="url(#filter0_di_1824_2051)">
<path d="M141.17 68.7831C143.333 66.6971 145.053 64.1955 146.227 61.4282C147.4 58.6609 148.004 55.685 148 52.6788C147.999 46.7356 145.639 41.0362 141.439 36.8342C137.239 32.6321 131.543 30.2715 125.604 30.2715C124.457 30.2701 123.312 30.3577 122.179 30.5333C120.481 23.8051 116.588 17.8364 111.116 13.5734C105.645 9.31042 98.9078 6.99704 91.9733 7C86.8813 6.99899 81.8668 8.24858 77.3699 10.6392C72.873 13.0297 69.0311 16.4882 66.1813 20.7111C62.6166 18.462 58.4876 17.2706 54.2735 17.275C48.3409 17.2794 42.6525 19.6391 38.4568 23.8362C34.2611 28.0333 31.901 33.7248 31.8944 39.6615C31.8949 41.4993 32.1208 43.33 32.567 45.1127C27.2391 48.0933 22.8023 52.4423 19.7143 57.7111C16.6263 62.98 14.9989 68.9779 15 75.0861C15 84.1958 18.6163 92.9325 25.0534 99.374C31.4904 105.816 40.2209 109.434 49.3243 109.434C52.8272 109.438 56.3098 108.902 59.6503 107.847C60.0308 110.219 61.2423 112.378 63.068 113.938C64.8937 115.498 67.2144 116.356 69.615 116.361C71.2971 116.362 72.9527 115.942 74.4312 115.139C75.9098 114.337 77.1644 113.177 78.0808 111.765C80.9041 116.137 84.7777 119.731 89.3473 122.217C93.9169 124.704 99.0367 126.005 104.238 126C112.497 126 120.418 122.717 126.257 116.873C132.097 111.029 135.378 103.103 135.378 94.8384C135.38 92.2451 135.059 89.6617 134.423 87.1477C134.739 87.1768 135.058 87.1934 135.378 87.1934C136.707 87.1934 138.024 86.931 139.252 86.4213C140.48 85.9115 141.595 85.1645 142.534 84.2228C143.473 83.2811 144.218 82.1634 144.724 80.9335C145.231 79.7036 145.491 78.3858 145.488 77.0555C145.486 75.4308 145.092 73.8306 144.341 72.3905C143.589 70.9505 142.501 69.713 141.17 68.7831V68.7831Z" fill="#B9F7F3"/>
</g>
<path d="M95.4283 71.67C94.3083 71.91 92.7483 72.1 90.7483 72.24C88.7683 72.38 86.4883 72.45 83.9083 72.45C82.0883 72.45 80.1883 72.42 78.2083 72.36C76.2483 72.28 74.3883 72.18 72.6283 72.06C70.8683 71.92 69.3783 71.77 68.1583 71.61C68.0983 71.31 68.0383 70.84 67.9783 70.2C67.9183 69.54 67.8583 68.83 67.7983 68.07C67.7583 67.31 67.7183 66.62 67.6783 66C67.6583 65.38 67.6483 64.95 67.6483 64.71C68.3283 64.79 69.2483 64.86 70.4083 64.92C71.5883 64.98 72.9183 65.03 74.3983 65.07C75.8983 65.09 77.4483 65.1 79.0483 65.1C81.3283 65.1 83.5483 65.07 85.7083 65.01C87.8683 64.93 89.8283 64.83 91.5883 64.71C93.3683 64.57 94.7783 64.41 95.8183 64.23C95.8383 65.13 95.8183 66.11 95.7583 67.17C95.7183 68.23 95.6583 69.18 95.5783 70.02C95.5183 70.86 95.4683 71.41 95.4283 71.67ZM85.0483 54.57C85.3083 55.61 85.5183 56.92 85.6783 58.5C85.8583 60.06 85.9983 61.79 86.0983 63.69C86.2183 65.57 86.2783 67.51 86.2783 69.51C86.2783 71.67 86.2083 73.86 86.0683 76.08C85.9283 78.28 85.6983 80.29 85.3783 82.11C85.1383 82.11 84.6883 82.11 84.0283 82.11C83.3683 82.09 82.6383 82.07 81.8383 82.05C81.0583 82.03 80.3383 82.01 79.6783 81.99C79.0183 81.95 78.5683 81.91 78.3283 81.87C78.4483 80.83 78.5383 79.67 78.5983 78.39C78.6583 77.11 78.6883 75.79 78.6883 74.43C78.6883 72.69 78.6383 70.89 78.5383 69.03C78.4383 67.17 78.3083 65.35 78.1483 63.57C78.0083 61.77 77.8483 60.12 77.6683 58.62C77.4883 57.1 77.3083 55.84 77.1283 54.84C77.3083 54.84 77.6683 54.83 78.2083 54.81C78.7683 54.77 79.3983 54.74 80.0983 54.72C80.8183 54.68 81.5283 54.65 82.2283 54.63C82.9283 54.61 83.5383 54.6 84.0583 54.6C84.5783 54.58 84.9083 54.57 85.0483 54.57Z" fill="#F15D31"/>
<defs>
<filter id="filter0_di_1824_2051" x="0" y="0" width="163" height="149" filterUnits="userSpaceOnUse" color-interpolation-filters="sRGB">
<feFlood flood-opacity="0" result="BackgroundImageFix"/>
<feColorMatrix in="SourceAlpha" type="matrix" values="0 0 0 0 0 0 0 0 0 0 0 0 0 0 0 0 0 0 127 0" result="hardAlpha"/>
<feOffset dy="8"/>
<feGaussianBlur stdDeviation="7.5"/>
<feComposite in2="hardAlpha" operator="out"/>
<feColorMatrix type="matrix" values="0 0 0 0 0.14902 0 0 0 0 0.737255 0 0 0 0 0.705882 0 0 0 0.45 0"/>
<feBlend mode="normal" in2="BackgroundImageFix" result="effect1_dropShadow_1824_2051"/>
<feBlend mode="normal" in="SourceGraphic" in2="effect1_dropShadow_1824_2051" result="shape"/>
<feColorMatrix in="SourceAlpha" type="matrix" values="0 0 0 0 0 0 0 0 0 0 0 0 0 0 0 0 0 0 127 0" result="hardAlpha"/>
<feOffset dy="-6"/>
<feGaussianBlur stdDeviation="9"/>
<feComposite in2="hardAlpha" operator="arithmetic" k2="-1" k3="1"/>
<feColorMatrix type="matrix" values="0 0 0 0 0.14902 0 0 0 0 0.737255 0 0 0 0 0.705882 0 0 0 0.27 0"/>
<feBlend mode="normal" in2="shape" result="effect2_innerShadow_1824_2051"/>
</filter>
</defs>
</svg>
