<svg width="26" height="23" viewBox="0 0 26 23" fill="none" xmlns="http://www.w3.org/2000/svg">
<mask id="path-1-inside-1_1710_6299" fill="white">
<path fill-rule="evenodd" clip-rule="evenodd" d="M9 0C7.89543 0 7 0.89543 7 2V3H2C0.895431 3 0 3.89543 0 5V21C0 22.1046 0.89543 23 2 23H24C25.1046 23 26 22.1046 26 21V5C26 3.89543 25.1046 3 24 3H19V2C19 0.895431 18.1046 0 17 0H9Z"/>
</mask>
<path fill-rule="evenodd" clip-rule="evenodd" d="M9 0C7.89543 0 7 0.89543 7 2V3H2C0.895431 3 0 3.89543 0 5V21C0 22.1046 0.89543 23 2 23H24C25.1046 23 26 22.1046 26 21V5C26 3.89543 25.1046 3 24 3H19V2C19 0.895431 18.1046 0 17 0H9Z" fill="black"/>
<path d="M7 3V5H9V3H7ZM19 3H17V5H19V3ZM9 2V2V-2C6.79086 -2 5 -0.209139 5 2H9ZM9 3V2H5V3H9ZM2 5H7V1H2V5ZM2 5V5V1C-0.209139 1 -2 2.79086 -2 5H2ZM2 21V5H-2V21H2ZM2 21H2H-2C-2 23.2091 -0.209139 25 2 25V21ZM24 21H2V25H24V21ZM24 21V25C26.2091 25 28 23.2091 28 21H24ZM24 5V21H28V5H24ZM24 5H28C28 2.79086 26.2091 1 24 1V5ZM19 5H24V1H19V5ZM17 2V3H21V2H17ZM17 2H21C21 -0.209139 19.2091 -2 17 -2V2ZM9 2H17V-2H9V2Z" fill="#5BB9B3" mask="url(#path-1-inside-1_1710_6299)"/>
<circle cx="13" cy="13" r="6" fill="black" stroke="#5BB9B3" stroke-width="2"/>
</svg>
