<svg width="163" height="149" viewBox="0 0 163 149" fill="none" xmlns="http://www.w3.org/2000/svg">
<g filter="url(#filter0_di_1110_1970)">
<path d="M141.17 68.7831C143.333 66.6971 145.053 64.1955 146.227 61.4282C147.4 58.6609 148.004 55.685 148 52.6788C147.999 46.7356 145.639 41.0362 141.439 36.8342C137.239 32.6321 131.543 30.2715 125.604 30.2715C124.457 30.2701 123.312 30.3577 122.179 30.5333C120.481 23.8051 116.588 17.8364 111.116 13.5734C105.645 9.31042 98.9078 6.99704 91.9733 7C86.8813 6.99899 81.8668 8.24858 77.3699 10.6392C72.873 13.0297 69.0311 16.4882 66.1813 20.7111C62.6166 18.462 58.4876 17.2706 54.2735 17.275C48.3409 17.2794 42.6525 19.6391 38.4568 23.8362C34.2611 28.0333 31.901 33.7248 31.8944 39.6615C31.8949 41.4993 32.1208 43.33 32.567 45.1127C27.2391 48.0933 22.8023 52.4423 19.7143 57.7111C16.6263 62.98 14.9989 68.9779 15 75.0861C15 84.1958 18.6163 92.9325 25.0534 99.374C31.4904 105.816 40.2209 109.434 49.3243 109.434C52.8272 109.438 56.3098 108.902 59.6503 107.847C60.0308 110.219 61.2423 112.378 63.068 113.938C64.8937 115.498 67.2144 116.356 69.615 116.361C71.2971 116.362 72.9527 115.942 74.4312 115.139C75.9098 114.337 77.1644 113.177 78.0808 111.765C80.9041 116.137 84.7777 119.731 89.3473 122.217C93.9169 124.704 99.0367 126.005 104.238 126C112.497 126 120.418 122.717 126.257 116.873C132.097 111.029 135.378 103.103 135.378 94.8384C135.38 92.2451 135.059 89.6617 134.423 87.1477C134.739 87.1768 135.058 87.1934 135.378 87.1934C136.707 87.1934 138.024 86.931 139.252 86.4213C140.48 85.9115 141.595 85.1645 142.534 84.2228C143.473 83.2811 144.218 82.1634 144.724 80.9335C145.231 79.7036 145.491 78.3858 145.488 77.0555C145.486 75.4308 145.092 73.8306 144.341 72.3905C143.589 70.9505 142.501 69.713 141.17 68.7831Z" fill="#B9F7F3"/>
</g>
<defs>
<filter id="filter0_di_1110_1970" x="0" y="0" width="163" height="149" filterUnits="userSpaceOnUse" color-interpolation-filters="sRGB">
<feFlood flood-opacity="0" result="BackgroundImageFix"/>
<feColorMatrix in="SourceAlpha" type="matrix" values="0 0 0 0 0 0 0 0 0 0 0 0 0 0 0 0 0 0 127 0" result="hardAlpha"/>
<feOffset dy="8"/>
<feGaussianBlur stdDeviation="7.5"/>
<feComposite in2="hardAlpha" operator="out"/>
<feColorMatrix type="matrix" values="0 0 0 0 0.14902 0 0 0 0 0.737255 0 0 0 0 0.705882 0 0 0 0.45 0"/>
<feBlend mode="normal" in2="BackgroundImageFix" result="effect1_dropShadow_1110_1970"/>
<feBlend mode="normal" in="SourceGraphic" in2="effect1_dropShadow_1110_1970" result="shape"/>
<feColorMatrix in="SourceAlpha" type="matrix" values="0 0 0 0 0 0 0 0 0 0 0 0 0 0 0 0 0 0 127 0" result="hardAlpha"/>
<feOffset dy="-6"/>
<feGaussianBlur stdDeviation="9"/>
<feComposite in2="hardAlpha" operator="arithmetic" k2="-1" k3="1"/>
<feColorMatrix type="matrix" values="0 0 0 0 0.14902 0 0 0 0 0.737255 0 0 0 0 0.705882 0 0 0 0.27 0"/>
<feBlend mode="normal" in2="shape" result="effect2_innerShadow_1110_1970"/>
</filter>
</defs>
</svg>
