<svg width="14" height="19" viewBox="0 0 14 19" fill="none" xmlns="http://www.w3.org/2000/svg">
<path d="M6.63075 9.65301L9.68748 12.3543C9.85341 12.5201 13.2726 15.1778 13.4342 15.2694C12.9058 15.6491 9.94078 18.3243 9.06743 18.6821C8.77486 18.4552 8.30763 18.0711 7.66572 17.5343L5.48235 15.7015C4.67887 15.0163 3.89717 14.3399 3.13735 13.6635C2.37754 12.9871 1.25968 11.9179 1.25968 11.8961C1.18106 11.4761 1.12567 11.0522 1.09374 10.6262C1.04571 10.0763 1.01078 9.52206 0.984576 8.96346C0.958376 8.40487 0.94092 7.9292 0.94092 7.54953C1.43436 7.07821 2.06314 6.50655 2.81859 5.83013C3.57404 5.15371 4.36005 4.47721 5.16353 3.79206L7.34691 1.9592C7.98882 1.41806 8.4561 1.03844 8.74867 0.807147C9.58708 1.17372 12.2814 3.91427 12.7399 4.5645C12.5739 4.65615 6.63075 9.65301 6.63075 9.65301Z" fill="#F15D31"/>
</svg>
