<svg width="30" height="26" viewBox="0 0 30 26" fill="none" xmlns="http://www.w3.org/2000/svg">
<g clip-path="url(#clip0_1110_2039)">
<path d="M21.1211 4.63648V2.33918C21.1211 2.03175 21.0616 1.72738 20.9459 1.44339C20.8302 1.1594 20.6607 0.901411 20.447 0.684158C20.2333 0.466905 19.9797 0.294666 19.7005 0.177274C19.4214 0.0598823 19.1222 -0.000366061 18.8202 1.67327e-06H11.1807C10.8787 -0.000366061 10.5795 0.0598823 10.3004 0.177274C10.0212 0.294666 9.76753 0.466905 9.55383 0.684158C9.34014 0.901411 9.17064 1.1594 9.05497 1.44339C8.93931 1.72738 8.87977 2.03175 8.87977 2.33918V4.63648C8.87977 4.93332 8.7639 5.21799 8.55769 5.42789C8.35147 5.63779 8.0718 5.75572 7.78016 5.75572H3.84631C3.33391 5.75552 2.82668 5.85991 2.35462 6.06272C1.88255 6.26553 1.45525 6.56261 1.09796 6.93645C0.740679 7.31029 0.460687 7.75327 0.274533 8.23918C0.0883793 8.72509 -0.000139696 9.24403 0.0141956 9.76536L0.352319 22.1946C0.383654 23.2092 0.800675 24.1717 1.51552 24.8794C2.23036 25.5872 3.18718 25.9849 4.18443 25.9888H25.8384C26.8385 25.9893 27.7996 25.5935 28.5179 24.8853C29.2363 24.1771 29.6556 23.2121 29.687 22.1946L30.0224 9.76536C30.0368 9.24403 29.9482 8.72509 29.7621 8.23918C29.5759 7.75327 29.2959 7.31029 28.9387 6.93645C28.5814 6.56261 28.1541 6.26553 27.682 6.06272C27.2099 5.85991 26.7027 5.75552 26.1903 5.75572H22.2565C22.1091 5.7606 21.9622 5.73525 21.8247 5.68119C21.6871 5.62714 21.5616 5.54543 21.4557 5.44101C21.3498 5.33658 21.2656 5.21156 21.2081 5.07334C21.1506 4.93512 21.121 4.78657 21.1211 4.63648Z" fill="#9BE8E4"/>
<path d="M14.9985 22.7693C18.8761 22.7693 22.0195 19.5698 22.0195 15.6229C22.0195 11.6761 18.8761 8.47656 14.9985 8.47656C11.1209 8.47656 7.97754 11.6761 7.97754 15.6229C7.97754 19.5698 11.1209 22.7693 14.9985 22.7693Z" fill="#262E53"/>
</g>
<defs>
<clipPath id="clip0_1110_2039">
<rect width="30" height="26" fill="white"/>
</clipPath>
</defs>
</svg>
