<svg width="96" height="90" viewBox="0 0 96 90" fill="none" xmlns="http://www.w3.org/2000/svg">
<g filter="url(#filter0_di_2148_2829)">
<path d="M77.6107 37.6593C78.6841 36.6241 79.5376 35.3827 80.12 34.0095C80.7024 32.6362 81.0017 31.1595 81 29.6677C80.9994 26.7184 79.8283 23.8902 77.7441 21.8049C75.66 19.7197 72.8335 18.5483 69.8863 18.5483C69.3172 18.5476 68.7489 18.591 68.1865 18.6782C67.3441 15.3394 65.4122 12.3775 62.6969 10.262C59.9816 8.14652 56.6384 6.99853 53.1973 7C50.6704 6.9995 48.182 7.6196 45.9505 8.80589C43.7189 9.99219 41.8124 11.7084 40.3982 13.804C38.6293 12.6879 36.5803 12.0967 34.4891 12.0989C31.5451 12.1011 28.7223 13.2721 26.6402 15.3548C24.5582 17.4376 23.3869 20.262 23.3837 23.208C23.3839 24.1199 23.496 25.0284 23.7174 25.9131C21.0735 27.3922 18.8718 29.5503 17.3394 32.1649C15.807 34.7795 14.9995 37.7559 15 40.7871C15 45.3077 16.7946 49.6432 19.9889 52.8398C23.1832 56.0363 27.5157 57.8321 32.0331 57.8321C33.7714 57.8337 35.4996 57.568 37.1573 57.0445C37.3461 58.2215 37.9473 59.2929 38.8533 60.0669C39.7593 60.841 40.9109 61.2671 42.1022 61.2692C42.9369 61.2697 43.7585 61.0613 44.4922 60.663C45.2259 60.2648 45.8485 59.6892 46.3033 58.9888C47.7043 61.1583 49.6265 62.9416 51.8942 64.1756C54.1618 65.4096 56.7024 66.055 59.2836 66.0526C63.382 66.0526 67.3125 64.4234 70.2104 61.5234C73.1084 58.6234 74.7365 54.6902 74.7365 50.589C74.7372 49.3021 74.578 48.0201 74.2626 46.7725C74.4192 46.787 74.5778 46.7952 74.7365 46.7952C75.3962 46.7952 76.0494 46.665 76.6588 46.4121C77.2681 46.1591 77.8217 45.7884 78.2877 45.3211C78.7537 44.8538 79.123 44.2991 79.3745 43.6888C79.626 43.0785 79.7548 42.4245 79.7535 41.7644C79.7524 40.9581 79.5571 40.164 79.1841 39.4494C78.811 38.7348 78.2713 38.1208 77.6107 37.6593Z" fill="#FFD9CE"/>
</g>
<defs>
<filter id="filter0_di_2148_2829" x="0" y="0" width="96" height="89.0508" filterUnits="userSpaceOnUse" color-interpolation-filters="sRGB">
<feFlood flood-opacity="0" result="BackgroundImageFix"/>
<feColorMatrix in="SourceAlpha" type="matrix" values="0 0 0 0 0 0 0 0 0 0 0 0 0 0 0 0 0 0 127 0" result="hardAlpha"/>
<feOffset dy="8"/>
<feGaussianBlur stdDeviation="7.5"/>
<feComposite in2="hardAlpha" operator="out"/>
<feColorMatrix type="matrix" values="0 0 0 0 0.945098 0 0 0 0 0.364706 0 0 0 0 0.192157 0 0 0 0.45 0"/>
<feBlend mode="normal" in2="BackgroundImageFix" result="effect1_dropShadow_2148_2829"/>
<feBlend mode="normal" in="SourceGraphic" in2="effect1_dropShadow_2148_2829" result="shape"/>
<feColorMatrix in="SourceAlpha" type="matrix" values="0 0 0 0 0 0 0 0 0 0 0 0 0 0 0 0 0 0 127 0" result="hardAlpha"/>
<feOffset dy="-6"/>
<feGaussianBlur stdDeviation="9"/>
<feComposite in2="hardAlpha" operator="arithmetic" k2="-1" k3="1"/>
<feColorMatrix type="matrix" values="0 0 0 0 0.945098 0 0 0 0 0.364706 0 0 0 0 0.192157 0 0 0 0.15 0"/>
<feBlend mode="normal" in2="shape" result="effect2_innerShadow_2148_2829"/>
</filter>
</defs>
</svg>
