<svg width="29" height="29" viewBox="0 0 29 29" fill="none" xmlns="http://www.w3.org/2000/svg">
<path d="M28.4283 17.67C27.3083 17.91 25.7483 18.1 23.7483 18.24C21.7683 18.38 19.4883 18.45 16.9083 18.45C15.0883 18.45 13.1883 18.42 11.2083 18.36C9.24828 18.28 7.38828 18.18 5.62828 18.06C3.86828 17.92 2.37828 17.77 1.15828 17.61C1.09828 17.31 1.03828 16.84 0.978281 16.2C0.918281 15.54 0.858281 14.83 0.798281 14.07C0.758281 13.31 0.718281 12.62 0.678281 12C0.658281 11.38 0.648281 10.95 0.648281 10.71C1.32828 10.79 2.24828 10.86 3.40828 10.92C4.58828 10.98 5.91828 11.03 7.39828 11.07C8.89828 11.09 10.4483 11.1 12.0483 11.1C14.3283 11.1 16.5483 11.07 18.7083 11.01C20.8683 10.93 22.8283 10.83 24.5883 10.71C26.3683 10.57 27.7783 10.41 28.8183 10.23C28.8383 11.13 28.8183 12.11 28.7583 13.17C28.7183 14.23 28.6583 15.18 28.5783 16.02C28.5183 16.86 28.4683 17.41 28.4283 17.67ZM18.0483 0.569997C18.3083 1.61 18.5183 2.92 18.6783 4.5C18.8583 6.06 18.9983 7.79 19.0983 9.69C19.2183 11.57 19.2783 13.51 19.2783 15.51C19.2783 17.67 19.2083 19.86 19.0683 22.08C18.9283 24.28 18.6983 26.29 18.3783 28.11C18.1383 28.11 17.6883 28.11 17.0283 28.11C16.3683 28.09 15.6383 28.07 14.8383 28.05C14.0583 28.03 13.3383 28.01 12.6783 27.99C12.0183 27.95 11.5683 27.91 11.3283 27.87C11.4483 26.83 11.5383 25.67 11.5983 24.39C11.6583 23.11 11.6883 21.79 11.6883 20.43C11.6883 18.69 11.6383 16.89 11.5383 15.03C11.4383 13.17 11.3083 11.35 11.1483 9.57C11.0083 7.77 10.8483 6.12 10.6683 4.62C10.4883 3.1 10.3083 1.84 10.1283 0.839998C10.3083 0.839998 10.6683 0.829998 11.2083 0.809997C11.7683 0.769998 12.3983 0.739999 13.0983 0.72C13.8183 0.679998 14.5283 0.649998 15.2283 0.629999C15.9283 0.609998 16.5383 0.599998 17.0583 0.599998C17.5783 0.579997 17.9083 0.569997 18.0483 0.569997Z" fill="#F15D31"/>
</svg>
