<svg width="82" height="102" viewBox="0 0 82 102" fill="none" xmlns="http://www.w3.org/2000/svg">
<g clip-path="url(#clip0_953_10208)">
<path d="M9.18141 50.981C17.002 49.22 24.0048 45.1371 29.4877 38.7705C34.9679 32.4071 38.8921 23.8075 40.6301 13.0551C42.3678 23.8009 46.2898 32.3988 51.767 38.7628C57.248 45.1312 64.2491 49.2174 72.0691 50.98C64.2493 52.7409 57.2482 56.8239 51.7671 63.1905C46.2887 69.554 42.3663 78.1535 40.6291 88.9058C38.8906 78.1599 34.9668 69.562 29.4878 63.198C24.005 56.8297 17.0022 52.7435 9.18141 50.981Z" fill="black" stroke="#5BB9B3" stroke-width="2"/>
<path d="M62 51C62 62.598 52.598 72 41 72C29.402 72 20 62.598 20 51C20 39.402 29.402 30 41 30C52.598 30 62 39.402 62 51Z" fill="black" stroke="#5BB9B3" stroke-width="2"/>
<path d="M49.1809 46.918L39.0896 57.0092L34.0439 51.9636" stroke="#5BB9B3" stroke-width="3" stroke-linecap="round" stroke-linejoin="round"/>
</g>
<defs>
<clipPath id="clip0_953_10208">
<rect width="81.24" height="101.95" fill="white"/>
</clipPath>
</defs>
</svg>
