<svg width="67" height="42" viewBox="0 0 67 42" fill="none" xmlns="http://www.w3.org/2000/svg">
<g clip-path="url(#clip0_1715_6478)">
<path d="M65.8661 21C65.8661 26.2265 62.4607 31.1113 56.6319 34.7407C50.8176 38.3609 42.7228 40.6328 33.7289 40.6328C24.7351 40.6328 16.6403 38.3609 10.826 34.7407C4.99713 31.1113 1.5918 26.2265 1.5918 21C1.5918 15.7734 4.99713 10.8886 10.826 7.25929C16.6403 3.63903 24.7351 1.36719 33.7289 1.36719C42.7228 1.36719 50.8176 3.63903 56.6319 7.25929C62.4607 10.8886 65.8661 15.7734 65.8661 21Z" fill="black" stroke="#5BB9B3" stroke-width="2"/>
<path d="M33.4995 40.7992C44.4695 40.7992 53.3624 31.9345 53.3624 20.9992C53.3624 10.064 44.4695 1.19922 33.4995 1.19922C22.5296 1.19922 13.6367 10.064 13.6367 20.9992C13.6367 31.9345 22.5296 40.7992 33.4995 40.7992Z" stroke="#5BB9B3" stroke-width="2" stroke-linecap="round" stroke-linejoin="round"/>
</g>
<defs>
<clipPath id="clip0_1715_6478">
<rect width="67" height="42" fill="white"/>
</clipPath>
</defs>
</svg>
