<svg width="102" height="106" viewBox="0 0 102 106" fill="none" xmlns="http://www.w3.org/2000/svg">
<g clip-path="url(#clip0_1707_2060)">
<path d="M50.9995 96.7046C68.3698 96.7046 82.4512 82.4958 82.4512 64.9685C82.4512 47.4411 68.3698 33.2324 50.9995 33.2324C33.6293 33.2324 19.5479 47.4411 19.5479 64.9685C19.5479 82.4958 33.6293 96.7046 50.9995 96.7046Z" stroke="#5BB9B3" stroke-width="2" stroke-linecap="round" stroke-linejoin="round"/>
<path d="M58.8721 78.1514C70.2333 78.1514 79.4434 68.858 79.4434 57.394C79.4434 45.9301 70.2333 36.6367 58.8721 36.6367C47.5109 36.6367 38.3008 45.9301 38.3008 57.394C38.3008 68.858 47.5109 78.1514 58.8721 78.1514Z" stroke="#5BB9B3" stroke-width="2" stroke-linecap="round" stroke-linejoin="round"/>
<path d="M51 21L51 33" stroke="#5BB9B3" stroke-width="2" stroke-linecap="round" stroke-linejoin="round"/>
<path d="M51 0L51 6" stroke="#5BB9B3" stroke-width="2" stroke-linecap="round" stroke-linejoin="round"/>
<path d="M51 21C54.866 21 58 17.866 58 14C58 10.134 54.866 7 51 7C47.134 7 44 10.134 44 14C44 17.866 47.134 21 51 21Z" stroke="#5BB9B3" stroke-width="2" stroke-linecap="round" stroke-linejoin="round"/>
<path d="M19.6893 23.1613L16.3613 17.2285" stroke="#5BB9B3" stroke-width="2" stroke-linecap="round" stroke-linejoin="round"/>
<path d="M24.5545 31.8451L20.6611 24.8984" stroke="#5BB9B3" stroke-width="2" stroke-linecap="round" stroke-linejoin="round"/>
<path d="M14.7646 31.1445L19.0359 35.8831" stroke="#5BB9B3" stroke-width="2" stroke-linecap="round" stroke-linejoin="round"/>
<path d="M8.29297 23.9629L13.1736 29.3784" stroke="#5BB9B3" stroke-width="2" stroke-linecap="round" stroke-linejoin="round"/>
<path d="M82.3145 23.1613L85.6395 17.2285" stroke="#5BB9B3" stroke-width="2" stroke-linecap="round" stroke-linejoin="round"/>
<path d="M77.4453 31.8451L81.3387 24.8984" stroke="#5BB9B3" stroke-width="2" stroke-linecap="round" stroke-linejoin="round"/>
<path d="M87.2361 31.1445L82.9648 35.8831" stroke="#5BB9B3" stroke-width="2" stroke-linecap="round" stroke-linejoin="round"/>
<path d="M93.7068 23.9629L88.8291 29.3784" stroke="#5BB9B3" stroke-width="2" stroke-linecap="round" stroke-linejoin="round"/>
</g>
<defs>
<clipPath id="clip0_1707_2060">
<rect width="102" height="106" fill="white"/>
</clipPath>
</defs>
</svg>
