<svg width="26" height="9" viewBox="0 0 26 9" fill="none" xmlns="http://www.w3.org/2000/svg">
<path d="M25.2063 0.969998C25.3863 2.05 25.4863 3.25 25.5063 4.57C25.5463 5.87 25.5563 6.99 25.5363 7.93C24.6163 7.93 23.3463 7.95 21.7263 7.99C20.1263 8.03 18.3463 8.07 16.3863 8.11C14.4263 8.15 12.4363 8.21 10.4163 8.29C8.39625 8.35 6.51625 8.42 4.77625 8.5C3.05625 8.56 1.63625 8.63 0.51625 8.71C0.51625 8.23 0.52625 7.64 0.54625 6.94C0.58625 6.22 0.62625 5.49 0.66625 4.75C0.70625 4.01 0.75625 3.34 0.81625 2.74C0.89625 2.12 0.95625 1.67 0.99625 1.39C2.97625 1.15 5.16625 0.959999 7.56625 0.819998C9.96625 0.659999 12.3563 0.58 14.7363 0.58C16.9363 0.58 18.9063 0.609999 20.6463 0.669999C22.4063 0.709999 23.9263 0.809999 25.2063 0.969998Z" fill="#5BB9B3"/>
</svg>
