<svg xmlns="http://www.w3.org/2000/svg" width="96.454" height="102" viewBox="0 0 96.454 102"><path fill="#CCC" d="M41.805 47.951c0 3.692-4.84 6.891-7.547 8.696-8.203 5.332-16.12 10.623-25.964 11.649-3.24.328-8.532 1.354-6.522 5.947 4.881 10.993 23.872-7.957 29.04-10.747a56.437 56.437 0 009.844-6.07 62.036 62.036 0 017.547-7.137c5.004-3.035 2.625 6.194 2.174 8.614-.451 2.42-1.354 5.701-2.051 8.573-.943 4.102-.451 7.957-1.231 11.895-.779 3.938-6.112 14.766-2.297 18.581 2.42 2.379 4.963-.943 5.824-3.117.513-2.813.679-5.678.492-8.532a45.995 45.995 0 014.102-10.623 39.596 39.596 0 001.723-17.104 21.287 21.287 0 011.436-12.305 72.713 72.713 0 0110.336-11.567c3.281-3.774 6.03-7.916 9.188-11.772a71.13 71.13 0 0111.362-9.967c2.543-2.01 8.942-6.112 4.102-9.352-3.199-2.133-9.557 5.209-11.362 7.055-3.774 3.815-7.137 8.203-10.993 11.731-3.856 3.527-8.203 7.383-11.854 11.403-2.912 3.117-5.906 6.44-10.623 6.071a39.2 39.2 0 01-13.002-4.102c-5.947-2.83-11.239-8.203-17.76-9.598-3.692-.861-8.203.984-4.471 5.004a43.19 43.19 0 0010.09 5.332c4.102 2.338 8.203 4.102 12.551 6.112 2.174.982 5.989 2.5 5.866 5.33z"/></svg>