<svg xmlns="http://www.w3.org/2000/svg" width="50.5" height="72" viewBox="0 0 50.5 72"><path fill="#CCC" d="M23.993 42.168c1.522 1.601.81 4.882.474 6.838-1.146 5.613-2.293 11.226-6.087 15.811-1.225 1.522-3.004 4.17-.237 5.257 6.601 2.629 6.72-13.36 7.747-16.7a32.322 32.322 0 001.522-6.779 38.052 38.052 0 01.217-6.186c.909-3.439 3.716 1.502 4.526 2.708.81 1.206 1.818 2.984 2.727 4.486 1.225 1.976 3.162 3.538 4.467 5.534 1.304 1.996 3.597 8.775 6.838 8.795 1.976 0 1.7-2.49 1.166-3.735a20.185 20.185 0 00-3.399-3.814 28.552 28.552 0 01-2.708-6.226 23.704 23.704 0 00-6.443-7.905 12.628 12.628 0 01-4.585-5.929 42.262 42.262 0 01-.494-9.21c-.198-2.945-.771-5.929-1.067-8.795-.123-2.998.083-6 .613-8.953.237-1.976 1.186-6.364-2.253-5.652-2.233.455-1.838 6.206-1.858 7.747 0 3.202.356 6.384.316 9.585s-.356 6.502-.356 9.882c.119 2.589.237 5.178-1.779 6.957a23.016 23.016 0 01-7.194 3.775c-3.696 1.324-8.123 1.285-11.502 3.399-1.976 1.245-3.083 3.953.198 3.953a24.994 24.994 0 006.502-1.976c2.688-.711 5.257-1.799 7.905-2.708 1.364-.455 3.538-1.463 4.744-.159z"/></svg>