<svg xmlns="http://www.w3.org/2000/svg" width="50.5" height="72" viewBox="0 0 50.5 72"><path fill="#CCC" d="M25.6 31.141c0 .494-.158.692.652 4.19s.198 2.372.791 3.518c3.459 6.898 3.083 15.811 7.905 21.918a15.808 15.808 0 012.727 4.091c.692 1.976.178 5-2.095 3.142a19.79 19.79 0 01-2.846-4.071 29.606 29.606 0 01-2.925-4.091 34.93 34.93 0 01-2.451-7.214 17.187 17.187 0 00-.692-2.293 181.711 181.711 0 01-4.407-18.617 4.624 4.624 0 00-1.364-.336c-1.403 0-2.55 4.763-3.044 5.791a32.165 32.165 0 01-5.336 6.779c-1.68 1.976-3.38 4.15-5.059 6.245a10.575 10.575 0 01-3.814 3.656c-3.301.83-1.324-3.459-.85-4.684.198-.553 1.008-1.185 1.562-2.134a35.787 35.787 0 014.131-4.526 30.048 30.048 0 004.486-6.601c1.68-3.32 2.965-6.581 6.087-8.913 2.372-1.779 2.312-3.795 1.976-6.403-.573-3.953-2.273-14.744 2.826-16.858 3.953-1.542 1.858 3.083 1.542 4.822a28.408 28.408 0 001.107 14.922 4.822 4.822 0 002.273 3.004 40.333 40.333 0 007.115 4.071c3.676 1.047 6.226 3.221 9.625 4.783 1.976.949 5.237 4.368 1.482 5.218a3.45 3.45 0 01-1.423-.632 18.12 18.12 0 00-5.237-2.253c-3.775-1.522-7.016-4.625-10.83-5.751-.416-.061-3.875-.714-3.914-.773z"/></svg>