<svg xmlns="http://www.w3.org/2000/svg" width="48.75" height="74" viewBox="0 0 48.75 74"><path fill="#CCC" d="M22.119 43.273c1.64 1.482 1.285 4.862 1.087 6.818-.711 5.652-1.383 11.483-4.724 16.384-1.087 1.601-2.648 4.427.178 5.198 6.917 1.976 5.573-14.012 6.305-17.432.552-2.274.87-4.598.949-6.937a38.014 38.014 0 01-.455-6.186c.711-3.478 4.071 1.087 5 2.312.929 1.225 1.976 2.846 3.103 4.249 1.423 1.976 3.478 3.281 4.98 5.158 1.502 1.878 4.407 8.518 7.609 8.222 1.976-.158 1.522-2.629.85-3.953a21.598 21.598 0 00-3.716-3.36 28.956 28.956 0 01-3.281-5.929 23.024 23.024 0 00-7.174-7.372 12.922 12.922 0 01-5.059-5.395 43.655 43.655 0 01-1.304-9.447c-.455-2.945-1.304-5.811-1.759-8.775a41.976 41.976 0 01-.336-9.052c0-1.976.632-6.482-2.747-5.475-2.293.711-1.285 6.384-1.166 7.905.277 3.202.909 6.364 1.146 9.566s.217 6.562.632 9.882c.277 2.51.672 5.218-1.304 7.214a23.267 23.267 0 01-6.858 4.407c-3.617 1.64-8.064 1.976-11.265 4.427-1.798 1.383-2.747 4.21.573 3.953a25.172 25.172 0 006.324-2.569c2.629-.929 5.119-2.273 7.668-3.399 1.365-.453 3.46-1.659 4.744-.414z"/></svg>