<svg xmlns="http://www.w3.org/2000/svg" width="49.75" height="67.25" viewBox="0 0 49.75 67.25"><path fill="#CCC" d="M27.511 29.913c3.953.711 7.629 3.518 11.562 4.664 1.921.254 3.792.794 5.554 1.601.46.28.984.437 1.522.455 3.676-1.245.198-4.348-1.976-5.119-3.538-1.206-6.344-3.162-10.159-3.834a40.952 40.952 0 01-7.451-3.399 4.725 4.725 0 01-2.589-2.806 28.653 28.653 0 01-2.609-14.902c.119-1.798 1.759-6.641-1.976-4.704-5 2.569-2.154 13.261-1.146 17.273.652 2.629.909 4.625-1.285 6.641-2.885 2.629-3.953 6.067-5.237 9.546a30.291 30.291 0 01-3.953 7.115 34.732 34.732 0 00-3.656 4.98c-.514 1.008-1.245 1.759-1.403 2.312-.356 1.265-1.976 5.811 1.304 4.625 1.403-.494 2.708-2.846 3.498-4.071 1.463-2.253 2.866-4.605 4.427-6.799a31.418 31.418 0 004.506-7.372c.395-1.067 1.067-6.048 2.49-6.127.475.013.947.086 1.403.217a179.448 179.448 0 006.305 18.262c.36.713.664 1.453.909 2.214a34.167 34.167 0 003.182 7.036 32.233 32.233 0 003.498 3.814 19.18 19.18 0 003.36 3.795c2.411 1.759 2.668-1.542 1.759-3.36a16.285 16.285 0 00-3.142-3.834c-5.475-5.731-5.929-14.704-10.159-21.285-.711-1.107 0 0-1.166-3.439s-1.047-3.676-1.047-4.17c-.08.098 3.418.415 3.675.671z"/></svg>