<svg xmlns="http://www.w3.org/2000/svg" width="107" height="114.5" viewBox="0 0 107 114.5"><path fill="#CCC" d="M67.364 43.962c-.697.656-1.107.779-4.389 6.932s-2.666 3.692-3.281 6.112c-3.651 14.438-15.505 26.866-16.407 41.92a31.877 31.877 0 01-1.231 9.434c-1.313 3.61-6.071 7.465-6.973 1.928a35.984 35.984 0 01.902-9.598c.088-3.219.417-6.428.984-9.598a67.62 67.62 0 015.619-13.618 28.07 28.07 0 001.887-4.102 339.29 339.29 0 0117.186-32.814 10.754 10.754 0 00-1.559-2.215c-1.969-1.846-9.762 3.692-11.772 4.553a61.518 61.518 0 01-16.407 3.076c-5.127.656-10.172 1.805-15.299 2.707a20.171 20.171 0 01-10.213.451c-5.824-2.953 2.502-6.686 4.758-7.875.943-.492 2.953-.451 5.004-1.066a62.83 62.83 0 0111.772-1.395 56.581 56.581 0 0015.094-3.774c6.645-2.625 12.674-5.783 20.057-5.25 5.742.41 8.203-2.502 10.952-6.891 4.102-6.604 15.422-24.61 25.513-20.96 7.67 2.707-1.19 6.809-3.897 8.983a54.47 54.47 0 00-17.309 23.134 9.312 9.312 0 00-.533 7.219c1.805 4.594 2.338 10.705 5.045 14.807 4.102 6.194 4.963 12.592 7.957 19.155 1.805 4.102 2.051 13.002-4.471 9.516a6.816 6.816 0 01-1.272-2.748 35.162 35.162 0 00-4.758-9.926c-3.568-6.973-4.389-15.628-8.655-22.149-.325-.534-4.427-5.825-4.304-5.948z"/></svg>