<svg xmlns="http://www.w3.org/2000/svg" width="129.5" height="98.5" viewBox="0 0 129.5 98.5"><path fill="#CCC" d="M66.635 37.516c.555.763.764 1.724.574 2.649-.927 5.518-8.828 7.283-12.625 10.506-6.93 6.003-11.433 14.876-17.657 21.541-2.031 2.119-6.136 5.165-4.105 8.828 2.031 3.664 4.414.795 6.224-1.192 4.105-5.121 8.828-10.418 13.243-15.229a96.533 96.533 0 0011.565-10.947c3.002-4.414 3.885-10.638 8.828-13.243 3.487-1.898 5.341 16.377 5.474 17.922 1.059 10.197-.883 20.614 3.046 30.635.883 2.207 3.708 5.032 6.18 4.414s2.207-5.385 1.986-7.857a272.487 272.487 0 00-4.635-32.709 73.202 73.202 0 00-5.165-14.964v.486c1.059-.75-.397-4.414 1.854-6.003 5.562-3.576 12.316-4.811 18.142-7.813 5.827-3.002 11.345-8.034 17.657-10.991a18.017 18.017 0 006.798-4.105c1.501-2.163 0-4.017-2.34-4.414-3.178-.265-4.811 3.267-7.416 4.414-7.151 2.913-14.346 5.739-21.188 9.226-5.65 2.913-11.08 8.122-17.657 9.402a24.949 24.949 0 01-8.166 1.677c-6.974-.53-13.772-3.09-20.703-3.885a156.726 156.726 0 01-17.657-1.766c-5.518-1.192-10.903-4.414-16.553-4.414a9.974 9.974 0 00-7.151 3.973c-2.472 5.474 10.55 6.401 13.596 6.886 10.197 1.633 20.614 1.104 30.635 3.046 3.178 1.014 14.39.219 17.216 3.927z"/></svg>