<svg xmlns="http://www.w3.org/2000/svg" width="79.5" height="103.5" viewBox="0 0 79.5 103.5"><path fill="#CCC" d="M50.183 46.711c-.328.82-.287 1.189-4.102 6.03-3.815 4.84-2.092 3.486-3.856 4.84-10.623 7.998-16.694 22.067-28.712 27.974a28.992 28.992 0 00-7.301 4.307c-2.502 2.379-4.102 7.629.861 6.44A33.63 33.63 0 0014.62 92.2a59.73 59.73 0 007.67-4.102 60.593 60.593 0 009.229-9.393 23.066 23.066 0 012.748-2.953 310.686 310.686 0 0020.878-25.513 8.781 8.781 0 012.338.492c2.215.984.369 9.311.369 11.239a53.705 53.705 0 003.158 14.561c1.272 4.471 2.092 9.024 3.117 13.536.574 2.379 1.231 6.891 3.158 8.532 4.512 3.815 4.635-4.348 4.84-6.604 0-.984-.656-2.625-.861-4.512a55.552 55.552 0 00-2.953-10.172 51.626 51.626 0 01-2.133-13.7c0-6.399.328-12.305-2.707-18.335-2.338-4.553-.738-7.547 1.887-11.403 4.102-5.783 14.807-21.206 8.203-28.261-4.922-5.373-5.168 3.363-6.03 6.317a48.895 48.895 0 01-13.248 22.313 8.2 8.2 0 01-5.783 2.912 69.44 69.44 0 01-13.905 1.025 111.866 111.866 0 00-18.54 0c-4.102 0-11.403 2.789-6.235 6.973.89.211 1.817.211 2.707 0a31.599 31.599 0 019.803.451c6.973.533 14.356-1.846 21.206-.615.699.329 6.647 1.846 6.647 1.723z"/></svg>