<svg xmlns="http://www.w3.org/2000/svg" width="110" height="126.5" viewBox="7.75 -14.25 110 126.5"><path fill="#CCC" d="M57.697 49.864c.353 4.414-4.767 8.828-7.725 11.256-8.828 7.328-17.657 14.611-28.913 17.171-3.752.795-9.844 2.737-6.842 7.857 7.195 12.272 26.971-12.581 32.621-16.509a64.127 64.127 0 0010.771-8.828 73.443 73.443 0 017.946-9.402c5.43-4.414 3.929 6.974 3.708 9.844-.221 2.869-.839 6.886-1.28 10.329-.574 4.723.574 9.402 0 14.126s-5.209 18.187 0 22.071c3.134 2.472 5.694-1.81 6.401-4.414a40.606 40.606 0 00-.574-10.064 56.513 56.513 0 013.443-13.243 46.348 46.348 0 00-.309-20.305 25.43 25.43 0 010-14.744A87.775 87.775 0 0187.537 30c3.355-4.856 6.003-10.109 9.182-15.053a82.954 82.954 0 0112.007-13.243c2.737-2.737 9.667-8.431 3.443-11.565-4.105-2.031-10.55 7.416-12.448 9.844-3.929 4.988-7.283 10.373-11.3 15.273s-8.564 9.711-12.404 14.964c-3.002 4.061-6.092 8.387-11.654 8.564a46.165 46.165 0 01-15.847-2.516c-7.372-2.516-14.302-8.034-22.071-8.828-4.414-.441-9.623 2.34-4.414 6.489 3.443 2.913 8.519 3.178 12.536 4.9 5.076 2.251 10.373 3.664 15.582 5.518 2.78.882 7.194 2.074 7.548 5.517z"/></svg>