<svg xmlns="http://www.w3.org/2000/svg" width="81" height="102" viewBox="0 0 81 102"><path fill="#CCC" d="M36.009 52.9c.492 3.486-3.404 7.219-5.66 9.352-6.645 6.317-13.331 12.551-22.354 15.094C5 78.207.201 80.012 2.867 83.991c6.317 9.475 21.001-11.321 25.349-14.766a48.955 48.955 0 008.203-7.424 61.937 61.937 0 015.906-7.916c4.102-3.651 3.486 5.414 3.445 7.711-.041 2.297-.369 5.537-.533 8.203-.246 3.815.861 7.547.779 11.321-.082 3.774-3.363 14.807.861 17.76 2.625 1.846 4.512-1.682 4.922-3.856a31.492 31.492 0 00-.943-8.203 46.979 46.979 0 012.174-10.623 36.902 36.902 0 00-1.19-16.407 20.504 20.504 0 01-.615-11.813 69.15 69.15 0 017.752-12.305c2.461-4.102 4.389-8.203 6.686-12.305a65.656 65.656 0 018.86-11.157c2.051-2.338 7.342-7.178 2.215-9.434-3.363-1.436-8.203 6.44-9.516 8.45-2.912 4.102-5.373 8.655-8.203 12.797-2.83 4.143-6.399 8.203-9.229 12.305-2.215 3.404-4.471 7.014-8.942 7.424a36.62 36.62 0 01-13.043-1.313c-5.947-1.518-11.731-5.619-18.048-6.112-3.61 0-7.629 2.297-3.363 5.414a38.447 38.447 0 0010.254 3.322c4.102 1.559 8.491 2.461 12.756 3.692 2.216.698 5.99 1.314 6.605 4.144z"/></svg>