<svg xmlns="http://www.w3.org/2000/svg" width="111.5" height="111.5" viewBox="11.75 -6.75 111.5 111.5"><path fill="#CCC" d="M72.162 36.481c-3.576 3.046-7.283 5.959-10.727 9.137a149.637 149.637 0 00-15.45 19.864 189.909 189.909 0 01-21.232 23.307c-1.501 1.324-14.92 10.903-8.21 13.552 1.766.706 3.222 1.677 4.414.53 2.693-2.428 6.489-3.09 9.226-5.385a30.597 30.597 0 006.268-9.932c2.693-4.679 7.328-7.46 10.638-11.609C56.315 64.556 66.026 53.3 75.693 42.309c0 0 .927-1.413.971-1.413s2.34 6.489 2.56 7.46a69.902 69.902 0 010 12.89 57.017 57.017 0 002.869 17.392c1.854 5.341 6.136 7.46 7.857.795a42.7 42.7 0 00.441-6.401 54.667 54.667 0 000-7.195 253.522 253.522 0 01-.971-28.957c0-7.372-.618-12.316 6.754-16.068a81.355 81.355 0 0011.168-8.564c3.62-2.649 8.828-3.664 11.698-7.283s1.192-9.358-4.414-7.725c-3.134.927-4.988 4.9-7.283 6.974a266.33 266.33 0 01-28.869 20.261c-6.489 4.414-14.523 2.516-21.762 1.677-8.828-1.015-16.907 1.81-25.691 2.119-4.149 0-8.828-2.869-12.934-1.501-9.931 3.31 5.783 10.991 10.242 10.594 7.637-.706 15.317-.795 22.91-1.545 7.592-.751 13.242-2.163 20.923.662z"/></svg>