<svg xmlns="http://www.w3.org/2000/svg" width="85.5" height="103.5" viewBox="20.75 -2.75 85.5 103.5"><path fill="#CCC" d="M73.72 44.746a46.008 46.008 0 00-7.46 10.682 57.998 57.998 0 01-30.37 22.998 27.383 27.383 0 01-7.725 1.81c-2.737 0-6.357-1.986-3.443-5.121 3.576-3.752 11.124-1.898 15.582-4.944a66.23 66.23 0 0014.081-15.626 107.964 107.964 0 0110.727-11.3c1.545-1.501 6.71-5.694 5.606-8.255-1.104-2.56-7.548-1.501-9.932-1.986a169.777 169.777 0 01-19.158-4.414c-3.885-1.236-10.682-2.781-13.243-6.136-1.589-1.986-1.324-6.224 1.545-6.312 2.869-.088 4.723 3.399 7.107 3.929a133.483 133.483 0 0016.2 4.414c2.472.265 5.121 0 7.592 0 3.943.053 7.855.693 11.609 1.898 4.414 1.854 5.43 2.737 7.813-2.56a52.504 52.504 0 017.857-11.742 66.221 66.221 0 018.828-10.373 5.34 5.34 0 013.929-1.677c4.811.309 1.413 4.9 0 6.93a656.107 656.107 0 00-6.577 8.828 41.55 41.55 0 01-5.341 7.46 17.659 17.659 0 00-5.739 14.302c.265 5.474 3.443 10.241 3.708 15.847.265 5.606-.706 11.168-.353 16.73s1.81 10.682 1.854 16.112c0 2.516-1.942 12.713-5.341 11.654-3.399-1.059-3.885-15.582-3.973-19.114a41.781 41.781 0 01-.486-11.918 72.443 72.443 0 001.236-11.742c.003-3.002-.262-15.23-6.133-10.374z"/></svg>