<svg xmlns="http://www.w3.org/2000/svg" width="114" height="96.5" viewBox="7.75 0.75 114 96.5"><path fill="#CCC" d="M72.666 36.276c-.883.441-1.324.441-6.312 5.429s-3.664 2.825-4.988 4.988c-7.769 12.978-22.91 21.586-28.119 35.976a31.434 31.434 0 01-3.929 8.828c-2.384 3.134-8.122 5.518-7.372 0a35.67 35.67 0 013.664-8.828 68.82 68.82 0 013.708-9.182 67.926 67.926 0 019.314-12.007 32.459 32.459 0 003.002-3.487 349.402 349.402 0 0126.485-26.706 10.684 10.684 0 00-.883-2.604c-1.368-2.384-10.594.75-12.757.971a59.94 59.94 0 01-16.818-1.81c-5.209-.839-10.462-1.236-15.671-1.854a20.757 20.757 0 01-9.844-2.516c-4.812-4.414 4.414-5.783 6.886-6.268 1.104 0 3.046.397 5.209.397a67.017 67.017 0 0111.83 2.075 57.115 57.115 0 0015.759.75c7.239-.574 14.037-1.854 21.056.839 5.43 2.075 8.828 0 12.669-3.531 6.092-5.165 22.071-19.334 30.9-12.89 6.665 4.9-3.178 6.268-6.401 7.592a55.974 55.974 0 00-23.837 17.569 9.71 9.71 0 00-2.604 6.886 82.15 82.15 0 00.574 15.847c2.119 7.195 1.148 13.728 2.119 20.968.574 4.414-1.81 13.243-7.107 7.901a6.227 6.227 0 01-.441-3.002 36.756 36.756 0 00-1.766-11.08c-1.413-7.813.353-16.465-1.854-24.058-.176-.748-2.604-7.104-2.472-7.193z"/></svg>