<svg xmlns="http://www.w3.org/2000/svg" width="96.454" height="70.922" viewBox="0 0 96.454 70.922"><path fill="#CCC" d="M53.677 26.257c-.779.287-1.148.246-5.824 4.102s-3.363 2.01-4.676 3.733c-7.752 10.131-21.329 15.874-27.071 27.482a28.128 28.128 0 01-4.102 7.014c-2.297 2.379-7.342 3.815-6.194-.861a32.79 32.79 0 014.102-7.26 55.286 55.286 0 014.102-7.342 57.68 57.68 0 018.778-8.901 23.794 23.794 0 002.871-2.625 293.397 293.397 0 0124.61-19.893 8.454 8.454 0 00-.451-2.297c-.902-2.133-8.983-.41-10.829-.41a51.634 51.634 0 01-13.987-3.158c-4.102-1.19-8.655-2.051-12.961-3.076-2.297-.533-6.645-1.19-8.203-3.076-3.61-4.348 4.102-4.43 6.399-4.594.943 0 2.502.656 4.348.861a53.966 53.966 0 019.721 2.871 49.237 49.237 0 0013.167 2.174 38.021 38.021 0 0117.637 2.707c4.348 2.256 7.26.738 10.952-1.723C71.685 8.211 86.575-2.166 93.301 4.11c5.127 4.758-3.281 4.963-6.112 5.783a47.09 47.09 0 00-21.534 12.305 7.957 7.957 0 00-2.83 5.537 67.365 67.365 0 00-1.107 13.372 107.31 107.31 0 010 17.801c0 3.815-2.789 10.993-6.768 5.989a5.329 5.329 0 010-2.584 29.495 29.495 0 00-.369-9.475c-.451-6.686 1.887-13.782.738-20.509-.33-.412-1.766-6.031-1.642-6.072z"/></svg>