<svg xmlns="http://www.w3.org/2000/svg" width="55.5" height="60.25" viewBox="0 0 55.5 60.25"><path fill="#CCC" d="M21.395 24.247a9.902 9.902 0 011.028 3.597c.613 3.103.83 1.976.593 3.103-.771 6.858 3.182 13.835.889 20.515a12.629 12.629 0 00-1.127 4.328c0 1.759 1.719 4.091 3.281 1.7a15.288 15.288 0 001.324-4.368 24.7 24.7 0 001.364-4.407 25.546 25.546 0 00-.415-6.72 9.01 9.01 0 01-.237-1.976 125.213 125.213 0 00-3.024-16.661 6.716 6.716 0 011.245-.81c1.403-.573 4.506 2.806 5.395 3.419a36.605 36.605 0 008.162 3.301c2.589.889 5.079 1.976 7.649 2.965a12.097 12.097 0 005.356 1.423c3.676-.632 0-3.261-1.028-4.071-.435-.336-1.522-.534-2.51-1.047a35.079 35.079 0 00-5.929-1.976 29.624 29.624 0 01-7.332-3.459 24.3 24.3 0 00-9.645-4.704 4.962 4.962 0 01-4.546-4.348c-1.028-3.439-3.577-12.728-9.605-12.293-4.625.316-.652 3.162.356 4.427a20.871 20.871 0 014.882 12.333 3.954 3.954 0 01-1.206 3.301 42.208 42.208 0 01-5.455 5.929 73.035 73.035 0 00-7.905 7.589c-1.719 1.581-3.557 5.534.573 4.743a3.625 3.625 0 001.206-1.047 20.179 20.179 0 014.427-3.953c3.202-2.688 5.277-6.443 8.795-8.795.316-.082 3.459-1.979 3.439-2.038z"/></svg>