<svg xmlns="http://www.w3.org/2000/svg" width="50.5" height="69" viewBox="0 0 50.5 69"><path fill="#CCC" d="M29.451 28.464a12.402 12.402 0 00-.514 4.229c-.198 3.617-.395 2.352 0 3.597 1.64 7.49-.949 15.811 2.115 23.025a16.708 16.708 0 011.561 4.506c.198 1.976-1.087 4.862-2.806 2.49a18.895 18.895 0 01-1.581-4.486 28.451 28.451 0 01-1.818-4.664 33.043 33.043 0 01-.593-7.649c.069-.776.069-1.556 0-2.332a174.185 174.185 0 01.395-18.993 4.84 4.84 0 00-1.225-.652c-1.344-.395-3.656 3.953-4.348 4.822a31.805 31.805 0 01-7.016 5.257c-2.214 1.482-4.289 3.182-6.443 4.763a10.371 10.371 0 01-4.585 2.569c-3.36 0-.395-3.656.296-4.684.316-.455 1.285-.889 1.976-1.66a33.294 33.294 0 015.099-3.34 28.713 28.713 0 006.067-5.198 22.972 22.972 0 018.044-7.036c2.708-1.127 3.162-3.044 3.439-5.692.435-3.953 1.463-14.823 6.917-15.495 4.15-.514 1.028 3.419.316 5.119a28.065 28.065 0 00-2.668 14.566 4.781 4.781 0 001.403 3.439 40.91 40.91 0 005.731 5.672c3.281 1.976 5.178 4.644 8.044 6.977 1.779 1.443 3.953 5.514 0 5.435a3.12 3.12 0 01-1.225-.968 17.93 17.93 0 00-4.407-3.498c-3.241-2.391-5.613-6.206-9.072-8.222-.039-.316-3.122-1.798-3.102-1.897z"/></svg>