<svg xmlns="http://www.w3.org/2000/svg" width="57" height="73.25" viewBox="0 0 57 73.25"><path fill="#CCC" d="M24.578 30.36c.237.474.356.692.316 4.625s.277 2.51 0 3.953c-2.134 8.123.356 17.471-3.261 25.12a18.76 18.76 0 00-1.976 5c-.296 2.154.988 5.336 2.945 2.846a20.062 20.062 0 002.174-5 35.593 35.593 0 002.174-5.04c.595-2.746.887-5.55.87-8.36a13.68 13.68 0 01.178-2.549c.501-6.938.626-13.899.376-20.851a6.57 6.57 0 011.344-.672c1.482-.395 3.834 4.467 4.585 5.455a35.262 35.262 0 007.293 5.929c2.352 1.719 4.506 3.676 6.818 5.475 1.206.988 3.32 2.965 4.921 3.004 3.716.119.652-3.953-.198-5.198-.277-.534-1.364-1.028-2.194-1.976a38.95 38.95 0 00-5.435-3.953 30.2 30.2 0 01-6.443-5.929c-2.589-3.103-4.724-6.285-8.518-8.024-2.945-1.364-3.34-3.459-3.538-6.403-.316-4.407-.949-16.305-6.917-17.293-4.546-.731-1.265 3.716-.514 5.554A30.923 30.923 0 0121.89 22.2a5.2 5.2 0 01-1.7 3.716c-2.134 1.818-3.953 4.684-6.542 5.929-3.716 1.878-5.929 4.882-9.17 7.253-1.976 1.463-4.546 5.929-.356 5.929a3.422 3.422 0 001.364-1.008 20.307 20.307 0 015.059-3.597c3.656-2.49 6.384-6.562 10.277-8.617a35.834 35.834 0 003.756-1.445z"/></svg>