<svg xmlns="http://www.w3.org/2000/svg" width="103.5" height="107.5" viewBox="0 0 103.5 107.5"><path fill="#CCC" d="M62.058 46.302a46.312 46.312 0 00-9.491 10.064 61.528 61.528 0 01-35.711 19.687 30.877 30.877 0 01-8.519.706c-2.958-.441-6.533-3.134-3.002-5.959 4.414-3.487 12.183-.309 17.392-2.869a69.118 69.118 0 0017.26-14.39A110.234 110.234 0 0153.23 43.212c1.81-1.368 7.946-4.988 7.107-7.901-.839-2.913-7.857-2.781-10.329-3.708a187.149 187.149 0 01-19.864-7.769c-4.017-1.942-11.08-4.679-13.243-8.828-1.413-2.34-.53-6.798 2.56-6.445s4.414 4.414 7.063 5.297a158.677 158.677 0 0016.686 7.239c2.649.706 5.518.618 8.122 1.236 4.24.659 8.36 1.938 12.227 3.796 4.679 2.737 5.43 3.752 8.828-1.457a54.466 54.466 0 019.667-10.991 69.466 69.466 0 0110.727-9.667 5.694 5.694 0 014.414-1.148c5.121 1.104.883 5.43-1.059 7.372-2.737 2.737-5.518 5.518-8.255 8.343a45.098 45.098 0 01-6.754 7.151 18.585 18.585 0 00-8.166 14.258c-.441 5.871 2.295 11.477 1.81 17.657s-2.295 11.786-2.693 17.657c-.397 5.871.441 11.654-.265 17.657-.309 2.649-3.84 13.243-7.328 11.565-3.487-1.677-1.986-17.171-1.633-20.968A44.913 44.913 0 0164 70.801a75.457 75.457 0 002.958-12.36c.618-3.311 1.854-16.421-4.9-12.139z"/></svg>