<svg width="68" height="79" viewBox="0 0 68 79" fill="none" xmlns="http://www.w3.org/2000/svg">
<rect x="4.625" y="53.2461" width="7.432" height="7.432" transform="rotate(38.4844 4.625 53.2461)" fill="#26BCB4"/>
<rect x="27.4575" y="65.998" width="8.91514" height="8.91514" transform="rotate(30 27.4575 65.998)" fill="#F15D31"/>
<g clip-path="url(#clip0_1512_1782)">
<path d="M54.4132 48.0404C59.824 42.6295 58.2916 32.3243 50.9903 25.0231C43.6891 17.7218 33.3839 16.1894 27.973 21.6002C22.5622 27.0111 24.0946 37.3163 31.3959 44.6175C38.6971 51.9188 49.0023 53.4512 54.4132 48.0404Z" fill="#9BE8E4"/>
<path d="M38.9731 50.0106C41.6268 47.3568 41.6284 43.0558 38.9765 40.404C36.3247 37.7521 32.0237 37.7537 29.3699 40.4074C26.7162 43.0611 26.7147 47.3621 29.3665 50.014C32.0184 52.6658 36.3194 52.6643 38.9731 50.0106Z" fill="#9BE8E4"/>
<path d="M56.3828 32.6009C59.0365 29.9472 59.038 25.6462 56.3862 22.9943C53.7344 20.3425 49.4333 20.344 46.7796 22.9977C44.1259 25.6515 44.1244 29.9525 46.7762 32.6043C49.428 35.2562 53.7291 35.2546 56.3828 32.6009Z" fill="#9BE8E4"/>
<path d="M46.2737 43.2088C45.6537 42.5888 44.6483 42.589 44.028 43.2093C43.4076 43.8297 43.4074 44.8351 44.0274 45.4551L46.1475 47.5752C46.7675 48.1952 47.7729 48.195 48.3933 47.5746C49.0136 46.9543 49.0138 45.9489 48.3939 45.3289L46.2737 43.2088Z" fill="#282560"/>
<path d="M51.8279 37.6546C51.2079 37.0346 50.2025 37.0348 49.5822 37.6551C48.9618 38.2755 48.9616 39.2809 49.5816 39.9009L51.7017 42.021C52.3217 42.641 53.3271 42.6408 53.9475 42.0204C54.5678 41.4001 54.568 40.3947 53.9481 39.7747L51.8279 37.6546Z" fill="#282560"/>
<path d="M42.9968 49.9783L38.0049 55.2202" stroke="#282560" stroke-width="2" stroke-miterlimit="10"/>
<path d="M44.7848 50.2894L44.5069 56.293" stroke="#282560" stroke-width="2" stroke-miterlimit="10"/>
<path d="M56.1895 36.7847L61.4314 31.7928" stroke="#282560" stroke-width="2" stroke-miterlimit="10"/>
<path d="M56.501 38.5728L62.5042 38.2952" stroke="#282560" stroke-width="2" stroke-miterlimit="10"/>
<path d="M27.9731 21.5995L26.4142 20.0407C25.2234 18.8499 24.5548 17.2345 24.5554 15.5498C24.556 13.8652 25.2258 12.2493 26.4174 11.0577" stroke="#282560" stroke-width="2" stroke-miterlimit="10"/>
</g>
<defs>
<clipPath id="clip0_1512_1782">
<rect width="38.213" height="48.7047" fill="white" transform="translate(6.46338 27.1108) rotate(-45)"/>
</clipPath>
</defs>
</svg>
