<svg width="122" height="111" viewBox="0 0 122 111" fill="none" xmlns="http://www.w3.org/2000/svg">
<g clip-path="url(#clip0_1110_1939)">
<path d="M76.0887 111C101.445 111 122 90.415 122 65.0216C122 39.6283 101.445 19.043 76.0887 19.043C50.7328 19.043 30.1777 39.6283 30.1777 65.0216C30.1777 90.415 50.7328 111 76.0887 111Z" fill="#F15D31"/>
<path d="M76.0894 96.0828C93.2197 96.0828 107.107 82.1755 107.107 65.0199C107.107 47.8644 93.2197 33.957 76.0894 33.957C58.9591 33.957 45.0723 47.8644 45.0723 65.0199C45.0723 82.1755 58.9591 96.0828 76.0894 96.0828Z" fill="#9BE8E4"/>
<path d="M61.3057 7.17107V7.17288C61.3057 11.1332 64.5115 14.3438 68.466 14.3438L83.7106 14.3438C87.6651 14.3438 90.8708 11.1332 90.8708 7.17288V7.17107C90.8708 3.21071 87.6651 0.000195503 83.7106 0.000195503L68.466 0.000195503C64.5115 0.000195503 61.3057 3.21071 61.3057 7.17107Z" fill="#262E53"/>
<path d="M0 33.957H43.7936" stroke="#262E53" stroke-width="2" stroke-miterlimit="10"/>
<path d="M13.7441 52.3867H43.7939" stroke="#262E53" stroke-width="2" stroke-miterlimit="10"/>
<path d="M25.7266 70.8164H43.7937" stroke="#262E53" stroke-width="2" stroke-miterlimit="10"/>
<path d="M76 46V65.8803H95.8803" stroke="#282560" stroke-width="2"/>
</g>
<defs>
<clipPath id="clip0_1110_1939">
<rect width="122" height="111" fill="white"/>
</clipPath>
</defs>
</svg>
