<svg width="161" height="103" viewBox="0 0 161 103" fill="none" xmlns="http://www.w3.org/2000/svg">
<g clip-path="url(#clip0_1110_1929)">
<path d="M31.986 0H95.3549C96.9121 0 98.454 0.305876 99.8927 0.900163C101.331 1.49445 102.639 2.36551 103.74 3.46361C104.841 4.56171 105.714 5.86534 106.31 7.30008C106.906 8.73482 107.213 10.2726 107.213 11.8255V64.2045H20.1309V11.8255C20.1309 8.68966 21.3798 5.6822 23.603 3.46456C25.8262 1.24693 28.8416 0.000714969 31.986 0V0Z" fill="#F15D31"/>
<path d="M135.952 21.5391H107.21V86.2234H149.142C150.699 86.2234 152.241 85.9176 153.679 85.3235C155.117 84.7293 156.424 83.8585 157.525 82.7606C158.626 81.6628 159.499 80.3594 160.095 78.925C160.691 77.4906 160.997 75.9533 160.997 74.4007V55.5273C160.997 53.4029 160.424 51.3177 159.337 49.4905L146.147 27.3386C145.098 25.5724 143.607 24.1088 141.82 23.0919C140.032 22.075 138.01 21.5399 135.952 21.5391Z" fill="#9BE8E4"/>
<path d="M135.952 21.5391H107.21V86.2234H149.142C150.699 86.2234 152.241 85.9176 153.679 85.3235C155.117 84.7293 156.424 83.8585 157.525 82.7606C158.626 81.6628 159.499 80.3594 160.095 78.925C160.691 77.4906 160.997 75.9533 160.997 74.4007V55.5273C160.997 53.4029 160.424 51.3177 159.337 49.4905L146.147 27.3386C145.098 25.5724 143.607 24.1088 141.82 23.0919C140.032 22.075 138.01 21.5399 135.952 21.5391Z" fill="#9BE8E4"/>
<path d="M20.1306 64.2031H107.21V86.2229H31.9858C28.8409 86.2229 25.8248 84.977 23.601 82.7593C21.3772 80.5416 20.1279 77.5338 20.1279 74.3974V64.2031H20.1306Z" fill="#9BE8E4"/>
<path d="M59.129 103.001C68.5881 103.001 76.2561 95.3535 76.2561 85.9202C76.2561 76.487 68.5881 68.8398 59.129 68.8398C49.67 68.8398 42.002 76.487 42.002 85.9202C42.002 95.3535 49.67 103.001 59.129 103.001Z" fill="#262E53"/>
<path d="M128.697 103.001C138.156 103.001 145.824 95.3535 145.824 85.9202C145.824 76.487 138.156 68.8398 128.697 68.8398C119.238 68.8398 111.57 76.487 111.57 85.9202C111.57 95.3535 119.238 103.001 128.697 103.001Z" fill="#262E53"/>
<path d="M136.47 52.8651H121.06C119.769 52.8651 118.531 52.3538 117.619 51.4437C116.706 50.5335 116.193 49.2991 116.193 48.012V40.193C116.193 38.9059 116.706 37.6715 117.619 36.7613C118.531 35.8512 119.769 35.3398 121.06 35.3398H132.034C132.893 35.3404 133.737 35.568 134.48 35.9994C135.223 36.4308 135.837 37.0508 136.262 37.7961L140.701 45.6151C141.122 46.3533 141.341 47.1885 141.336 48.0375C141.332 48.8865 141.104 49.7194 140.676 50.4531C140.247 51.1869 139.634 51.7958 138.896 52.219C138.158 52.6423 137.321 52.865 136.47 52.8651Z" fill="#FAFAFA"/>
<path d="M0 29.043H34.484" stroke="#262E53" stroke-width="2" stroke-miterlimit="10"/>
<path d="M10.8223 43.4961H34.4839" stroke="#262E53" stroke-width="2" stroke-miterlimit="10"/>
</g>
<defs>
<clipPath id="clip0_1110_1929">
<rect width="161" height="103" fill="white"/>
</clipPath>
</defs>
</svg>
